<svg width="643" height="113" viewBox="0 0 643 113" fill="none" xmlns="http://www.w3.org/2000/svg">
<g clip-path="url(#clip0_3494_7021)">
<path d="M0 47.058L33.4618 7.75834H61.7106L28.2488 47.058H0ZM21.4574 80.1199L70.3926 22.6344C73.9945 18.2044 78.0141 14.1244 82.397 10.4498C87.5336 6.21748 93.5508 3.16215 100.018 1.5024C108.422 -0.692984 117.283 -0.478566 125.569 2.12071C133.773 4.68188 140.933 9.78082 145.998 16.6694C152.433 25.6991 155.138 36.825 153.561 47.7673C152.834 53.1604 151.033 58.3568 148.264 63.0551C145.494 67.7534 141.81 71.8601 137.426 75.137C132.411 78.8184 126.608 81.3074 120.466 82.4113C116.994 83.1353 113.459 83.5251 109.912 83.5753H96.1085L71.1085 113H42.9515L82.9661 65.9349L86.2333 62.0796H104.827C111.362 62.0796 118.263 62.0795 123.917 58.4424H124.027C126.68 56.6265 128.86 54.2137 130.39 51.4019C131.921 48.59 132.757 45.4589 132.83 42.2653C132.904 39.0716 132.212 35.9061 130.813 33.0281C129.414 30.1501 127.346 27.6415 124.779 25.7078L124.504 25.5077L124.357 25.3986L124.155 25.2531C120.923 22.9987 117.093 21.7341 113.142 21.616H112.922C110.37 21.4991 107.814 21.7627 105.341 22.3979C101.882 23.3165 98.6685 24.9738 95.9249 27.2536C92.5861 30.114 89.5144 33.2668 86.7472 36.6739L49.5594 80.32L21.4574 80.1199Z" fill="#FF6600"/>
<path fill-rule="evenodd" clip-rule="evenodd" d="M374.764 58.2749C367.978 66.025 354.653 64.0743 345.439 64.3027C339.272 64.3027 329.137 61.8248 330.519 53.9341C330.519 53.4948 331.175 49.4704 331.192 49.154H342.515C345.846 49.154 344.907 50.1382 344.5 53.0203C344.181 56.3945 348.327 57.5895 351.091 57.5368C354.298 57.5368 358.569 57.9937 361.209 55.7794C361.762 55.3768 362.206 54.8458 362.503 54.2329V54.2329C362.892 53.776 363.707 46.9397 363.867 46.2544V46.1665C363.548 39.8047 352.615 42.0366 348.487 41.65C345.114 41.7209 341.769 41.0298 338.705 39.629V39.629C336.048 38.2934 333.39 35.7276 333.726 32.5995C333.726 32.4764 334.347 25.8159 334.347 25.7105C334.564 24.6577 334.99 23.6578 335.598 22.7682C336.206 21.8786 336.985 21.1168 337.89 20.5262V20.5262C344.712 14.9729 355.929 16.2558 364.168 16.1503C367.994 16.0254 371.778 16.9758 375.083 18.8918V18.8918C375.463 19.1428 375.83 19.4127 376.182 19.7002V19.7002C377 20.3471 377.696 21.1324 378.237 22.02V22.02C378.703 22.7596 378.969 23.6057 379.009 24.4768C379.049 25.3478 378.863 26.2145 378.468 26.9934H367.039C364.629 26.9934 365.267 26.7122 364.08 25.0251C363.387 24.2513 362.521 23.6483 361.553 23.264C360.584 22.8796 359.538 22.7245 358.498 22.8108C355.273 22.7054 351.304 22.8108 349.089 25.4645C348.079 26.2377 348.008 28.8562 347.796 30.0161C347.299 33.2848 350.347 34.2514 354.228 34.1811C358.994 34.2866 366.277 33.6539 370.742 35.3937L371.274 35.587C371.274 35.587 375.969 37.8541 377.263 40.0859C379.035 42.4233 376.554 51.8604 376.448 54.8656C376.199 56.1608 375.62 57.3711 374.764 58.3803V58.2749ZM257.037 39.3654C256.048 39.7378 255.028 40.0259 253.989 40.2265V40.2265C249.099 41.4918 241.267 39.1194 239.158 45.1999C239.158 46.061 237.953 53.4245 238.219 54.1275C238.928 56.8338 242.259 57.6422 244.775 57.6422C245.697 57.6422 250.959 57.6422 251.863 57.6422C253.069 57.5185 254.24 57.1728 255.318 56.6229C255.993 56.3083 256.596 55.8597 257.09 55.3049V55.3049C257.561 54.7799 257.874 54.1345 257.994 53.4421C258.118 52.4579 259.907 38.7152 259.961 38.2758C259.11 38.3988 257.817 38.9964 257.037 39.26V39.3654ZM275.678 25.4996L270.486 62.9495V63.5295C266.569 64.4413 262.525 64.6849 258.525 64.25C257.143 64.0567 256.523 63.5998 256.984 61.5085C251.396 63.865 245.317 64.8477 239.264 64.373C235.748 64.4202 232.265 63.6814 229.076 62.2114V62.2114C226.418 60.911 223.76 58.4155 224.15 55.1819C224.15 55.1819 225.798 44.6376 225.78 44.6376C225.839 44.0891 225.952 43.5476 226.117 43.0208V43.0208C226.212 42.7135 226.33 42.4139 226.471 42.1245V42.1245C226.619 41.819 226.791 41.5252 226.985 41.2458V41.2458C227.133 41.0266 227.293 40.8154 227.463 40.6131C228.301 39.5777 229.3 38.6818 230.422 37.9595V37.9595C232.447 36.6507 234.683 35.6938 237.032 35.1301C241.09 33.8999 249.559 34.4623 253.83 34.3393C255.952 34.3907 258.027 33.721 259.713 32.4413V32.4413C260.288 32.0098 260.745 31.4417 261.042 30.7894V30.7894C261.307 29.8074 261.508 28.8095 261.644 27.8018V27.8018C261.698 27.3033 261.643 26.7993 261.484 26.3234C261.325 25.8475 261.066 25.4108 260.723 25.0427C258.454 22.4418 254.042 23.1096 250.959 23.0393C249.711 23.0326 248.473 23.2592 247.309 23.7071V23.7071C244.102 24.7439 244.527 27.3449 241.32 27.011H229.714V26.6946C229.758 26.1008 229.859 25.5124 230.015 24.9372V24.9372C230.862 22.8344 232.405 21.0803 234.392 19.9638C238.469 17.5138 243.163 16.2587 247.929 16.3436C252.412 16.5018 263.221 15.7988 267.42 17.1169C269.149 17.5527 270.795 18.265 272.293 19.2257C274.031 20.2555 275.301 21.9114 275.837 23.8477V23.8477C275.869 24.3683 275.815 24.8907 275.678 25.3942V25.4996ZM571.024 39.383C570.023 39.7371 568.998 40.0247 567.959 40.2441V40.2441C562.979 41.4918 555.218 39.1897 553.127 45.2351C553.127 46.0962 551.94 53.4597 552.188 54.145C552.915 56.869 556.246 57.6598 558.744 57.6598C559.684 57.6598 564.946 57.6598 565.832 57.6598C567.067 57.5508 568.269 57.2109 569.376 56.6581V56.6581C570.046 56.334 570.647 55.8867 571.148 55.3401V55.3401C571.62 54.8113 571.928 54.1582 572.034 53.4597C572.176 52.4755 573.948 38.7503 574.019 38.2934C573.079 38.3988 571.786 39.0139 571.024 39.2775V39.383ZM589.665 25.4996L584.508 62.8441V63.4416C580.59 64.3433 576.547 64.5869 572.548 64.1621C571.148 63.9688 570.528 63.5119 570.989 61.4206C565.398 63.7664 559.32 64.7429 553.269 64.2676C549.748 64.3187 546.261 63.5861 543.063 62.1236V62.1236C540.405 60.8055 537.747 58.3276 538.155 55.094L539.785 44.5497C539.855 44.0015 539.973 43.4605 540.139 42.9329V42.9329C540.228 42.6236 540.347 42.3234 540.494 42.0366V42.0366C540.645 41.7269 540.816 41.4274 541.007 41.1404L541.486 40.4901C542.341 39.4717 543.337 38.5782 544.445 37.8365V37.8365C546.48 36.5297 548.719 35.5676 551.072 34.9895V34.9895C555.13 33.7769 563.6 34.3217 567.87 34.2163C569.988 34.2458 572.057 33.5783 573.753 32.3183C574.311 31.8735 574.759 31.3086 575.064 30.6663V30.6663C575.346 29.6824 575.548 28.6774 575.666 27.6612V27.6612C575.718 27.1615 575.661 26.6566 575.499 26.1807C575.337 25.7047 575.074 25.2687 574.727 24.9021C572.477 22.3188 568.065 22.969 564.982 22.8987C563.732 22.8951 562.493 23.1277 561.332 23.5841V23.5841C558.124 24.6034 558.55 27.2043 555.325 26.8704H543.736V26.554C543.789 25.9611 543.889 25.3734 544.037 24.7967V24.7967C544.879 22.6908 546.424 20.9352 548.414 19.8232V19.8232C552.489 17.3653 557.183 16.1039 561.952 16.1855C566.417 16.3612 577.243 15.6407 581.443 16.9763C583.173 17.4079 584.82 18.1205 586.316 19.0851V19.0851C587.77 19.985 588.914 21.303 589.594 22.8635V22.8635C589.703 23.1349 589.781 23.418 589.824 23.7071C589.866 24.2743 589.812 24.8445 589.665 25.3942V25.4996ZM200.973 22.9163C196.88 22.9163 190.82 22.5121 189.827 27.4503L186.089 53.0906C186.035 53.4401 186.035 53.7956 186.089 54.145C186.201 54.641 186.417 55.1081 186.722 55.5166C187.027 55.9251 187.415 56.266 187.861 56.5175V56.5175C189.268 57.3064 190.87 57.6899 192.485 57.6247C195.675 57.6247 199.874 58.064 202.514 55.8673C203.067 55.4647 203.511 54.9336 203.808 54.3208V54.3208C203.949 53.9986 204.056 53.663 204.127 53.3191L207.866 27.6085V27.4152C208.185 23.7071 203.773 22.8108 200.973 22.8108V22.9163ZM210.506 16.3963C212.887 16.6669 215.198 17.3635 217.328 18.4525V18.4525C218.032 18.8342 218.702 19.2751 219.33 19.7705V19.7705C219.871 20.2043 220.359 20.6998 220.783 21.2468C221.363 21.9726 221.769 22.82 221.97 23.7246V23.7246C222.537 24.2694 217.806 54.8128 217.665 55.797C217.524 56.2387 217.346 56.6679 217.133 57.0799V57.0799C214.847 60.8934 210.825 62.5102 206.732 63.5998C200.601 64.9705 190.288 65.076 185.043 61.5612C185.043 62.1587 182.775 76.8505 182.633 77.8522C181.35 78.5115 179.938 78.8875 178.494 78.9542C177.051 79.021 175.609 78.7769 174.27 78.2388V78.2388C170.194 76.4814 169.397 72.7733 169.964 68.2744L177.264 17.5035V16.9236C180.436 16.4378 183.641 16.1968 186.851 16.203C189.172 16.3261 191.404 16.203 191.015 19.2609C196.951 15.8516 203.95 15.7461 210.506 16.2909V16.3963ZM514.765 22.9338C510.672 22.9338 504.63 22.5296 503.62 27.4679L499.881 53.1258C499.836 53.47 499.836 53.8184 499.881 54.1626V54.1626C499.995 54.6601 500.212 55.129 500.517 55.5401C500.821 55.9512 501.208 56.2959 501.653 56.5527V56.5527C503.065 57.3269 504.665 57.7036 506.277 57.6422C509.467 57.6422 513.684 58.0991 516.307 55.8848C516.86 55.4758 517.304 54.9389 517.6 54.3208V54.3208C517.751 54.0026 517.859 53.6657 517.919 53.3191L521.658 27.6085V27.4152C521.977 23.7247 517.582 22.8284 514.765 22.8284V22.9338ZM524.298 16.4139C526.681 16.683 528.994 17.386 531.12 18.4876C531.824 18.8633 532.494 19.2984 533.122 19.7881C533.668 20.2237 534.156 20.7256 534.575 21.2819V21.2819C535.153 22.0096 535.558 22.8563 535.762 23.7598V23.7598C536.329 24.3046 531.598 54.848 531.457 55.8497C531.324 56.2885 531.146 56.7125 530.925 57.115C528.639 60.9285 524.635 62.5453 520.524 63.6349C516.976 64.3592 513.348 64.6192 509.733 64.4082C505.906 64.5066 502.129 63.5319 498.835 61.5963C498.747 62.1763 496.567 76.8681 496.425 77.8873C495.141 78.5422 493.729 78.9157 492.286 78.9824C490.843 79.0491 489.403 78.8075 488.062 78.274V78.274C483.987 76.5166 483.189 72.8261 483.756 68.3096L491.057 17.5562L491.145 16.9763C494.316 16.4846 497.521 16.2378 500.731 16.2382C503.053 16.3612 505.285 16.2382 504.895 19.3136C510.743 15.8691 517.742 15.7813 524.263 16.3085L524.298 16.4139ZM604.354 64.1446C601.146 63.8397 598.083 62.6731 595.494 60.7704V60.7704C594.949 60.3412 594.461 59.8451 594.041 59.2942V59.2942C593.461 58.5684 593.055 57.7209 592.854 56.8163V56.8163C592.163 57.2029 596.185 31.8965 596.132 31.4747C596.664 27.7315 597.674 20.825 598.206 17.0642C600.496 16.5203 602.854 16.3131 605.205 16.4491V16.4491C606 16.4848 606.787 16.6267 607.544 16.8708V16.8708C607.859 16.9784 608.167 17.1076 608.465 17.2575V17.2575C608.984 17.5415 609.446 17.9167 609.829 18.3646V18.3646C610.03 18.5929 610.208 18.8401 610.361 19.1027V19.1027C611.146 20.6516 611.353 22.4256 610.946 24.1113C609.865 33.7242 608.359 43.2844 606.977 52.8446C607.402 58.9778 617.36 58.1167 621.506 56.869C622.618 56.4772 623.607 55.8049 624.377 54.9183V54.9183C624.821 54.3647 625.087 53.6909 625.139 52.9852C626.769 41.8082 628.771 28.1884 630.366 17.1344C632.656 16.5896 635.014 16.3824 637.365 16.5194V16.5194C638.12 16.5772 638.865 16.7307 639.58 16.9763V16.9763C639.896 17.0838 640.204 17.213 640.502 17.3629C641.02 17.647 641.483 18.0221 641.866 18.4701V18.4701C642.063 18.7015 642.241 18.9483 642.398 19.2082C643.153 20.7913 643.346 22.5811 642.947 24.287L638.694 55.7267C638.231 60.6386 636.974 65.4448 634.973 69.9615C632.351 74.7768 626.787 76.9911 621.648 78.0279C617.714 78.9769 612.221 78.5376 608.181 78.4673C606.055 78.3267 600.739 78.4673 598.702 78.0279C598.188 77.9401 597.709 77.8522 597.284 77.7467C595.036 77.3822 593.016 76.1727 591.643 74.3695C590.27 72.5663 589.651 70.3079 589.913 68.0635L601.838 68.1514C604.531 68.1514 602.99 68.9598 604.035 70.4887C606.835 73.0897 612.895 71.8243 616.226 71.2268C620.674 70.313 623.314 65.5681 623.881 61.1746C621.781 62.281 619.548 63.1195 617.236 63.6701V63.6701C612.979 64.3755 608.645 64.4996 604.354 64.0391V64.1446ZM469.687 16.4667C470.717 16.5878 471.736 16.7876 472.735 17.0642C473.818 17.3525 474.873 17.7348 475.889 18.2065V18.2065C476.423 18.4551 476.939 18.743 477.43 19.0676V19.0676C477.812 19.3156 478.179 19.5856 478.529 19.876V19.876L478.777 20.0869C479.202 20.5104 479.605 20.9562 479.982 21.4225C480.195 21.6861 480.372 21.9848 480.549 22.2485C480.706 22.5189 480.842 22.8009 480.956 23.092C481.064 23.3715 481.147 23.6596 481.205 23.9531C481.267 24.2421 481.303 24.5363 481.311 24.8318C479.628 38.1352 477.448 51.3859 475.605 64.6542C475.162 64.7948 474.666 64.953 474.276 65.0408C472.748 65.4234 471.158 65.501 469.598 65.2693C469 65.1714 468.408 65.0364 467.826 64.8651V64.8651C466.982 64.5743 466.191 64.1467 465.487 63.5998C464.95 63.172 464.479 62.6688 464.088 62.106V62.106C463.886 61.8222 463.708 61.5224 463.556 61.2097V61.2097C462.92 59.7803 462.735 58.1938 463.024 56.6581V56.6581C464.395 47.0979 465.777 37.5377 467.171 27.9775C467.163 27.9429 467.163 27.9068 467.171 27.8721V27.8721C467.207 27.545 467.207 27.215 467.171 26.888C467.017 26.2312 466.693 25.6256 466.232 25.1306V25.1306C465.734 24.5846 465.132 24.1425 464.46 23.8301C464.075 23.6418 463.671 23.4945 463.255 23.3908V23.3908C461.593 23.0392 459.88 23.0034 458.205 23.2853V23.2853C457.379 23.4426 456.571 23.6841 455.795 24.0058C454.799 24.4186 453.935 25.0931 453.297 25.9565C450.497 38.5043 449.611 51.6847 447.502 64.4609H433.664C435.435 52.2998 437.101 40.1562 438.873 28.0127C438.918 27.6802 438.918 27.3434 438.873 27.011C438.816 26.6827 438.715 26.3635 438.572 26.062C438.251 25.4335 437.776 24.8955 437.19 24.4979C436.893 24.2761 436.572 24.0875 436.233 23.9356C435.086 23.4256 433.839 23.1735 432.583 23.1975C431.247 23.0374 429.892 23.1752 428.617 23.6009C427.341 24.0266 426.178 24.7293 425.211 25.6578V25.6578C422.11 38.1352 421.668 51.509 419.399 64.3203H405.118C407.409 48.539 409.689 32.7635 411.957 16.9939C415.578 16.5547 419.232 16.4488 422.872 16.6775C424.52 16.8357 425.832 17.3453 426.275 19.0851C427.421 18.4948 428.605 17.9783 429.818 17.5387C430.676 17.2395 431.552 16.993 432.441 16.8006C435.614 16.1135 438.888 16.0122 442.098 16.5018C442.683 16.5897 443.285 16.7127 443.87 16.8533C444.455 16.9939 445.022 17.1872 445.553 17.3805C446.085 17.5738 446.616 17.7847 447.095 17.9956C448.73 18.7407 450.214 19.7772 451.471 21.0534C454.158 18.9397 457.308 17.4828 460.668 16.8006C462.56 16.3966 464.491 16.1962 466.427 16.203C467.533 16.1827 468.64 16.2355 469.74 16.3612L469.687 16.4667ZM391.385 16.4667C393.137 16.1438 394.923 16.0434 396.701 16.1679V16.1679C397.455 16.235 398.198 16.3884 398.916 16.6248V16.6248C399.235 16.7303 399.544 16.8656 399.837 17.029C400.359 17.3012 400.822 17.6713 401.202 18.1186V18.1186C401.399 18.35 401.576 18.5968 401.733 18.8567V18.8567C401.89 19.1334 402.026 19.4212 402.141 19.7178V19.7178C403.47 23.0744 400.032 38.7152 399.855 42.476L396.914 63.6525L396.807 64.3203H382.88L383.004 63.4416L386.406 39.6993L389.631 17.3278V16.783L391.385 16.4667ZM322.28 58.3803C315.475 66.148 302.168 64.1797 292.936 64.4082C286.788 64.4082 276.635 61.9478 278.034 54.0396C278.034 53.6002 278.672 49.5758 278.69 49.2595H290.013C293.344 49.2595 292.405 50.2436 292.015 53.1082C291.678 56.4999 295.842 57.6949 298.607 57.6422C301.796 57.6422 306.066 58.0991 308.724 55.8848C309.267 55.4722 309.709 54.9436 310.018 54.3384V54.3384C310.408 53.8814 311.223 47.0452 311.382 46.3598V46.2719C310.992 39.875 300.166 42.1597 295.984 41.7555C292.611 41.8263 289.267 41.1352 286.203 39.7344C283.545 38.3813 280.887 35.8155 281.242 32.7049C281.242 32.5819 281.844 25.939 281.844 25.8159C282.062 24.7631 282.487 23.7633 283.095 22.8737C283.703 21.9841 284.482 21.2222 285.388 20.6317V20.6317C289.666 17.665 294.788 16.1318 300.006 16.2558C306.616 16.5018 316.84 15.0607 322.581 19.0149C322.971 19.2609 323.36 19.5421 323.697 19.8057C324.513 20.4563 325.204 21.2482 325.735 22.143V22.143C326.199 22.8797 326.465 23.7216 326.508 24.589C326.552 25.4563 326.371 26.3203 325.983 27.0989H314.554C312.144 27.0989 312.693 26.8177 311.595 25.1306C310.897 24.3575 310.029 23.7553 309.057 23.3711C308.086 22.9869 307.038 22.8312 305.996 22.9163C302.788 22.8108 298.801 22.9163 296.604 25.5699C295.594 26.3607 295.523 28.9617 295.311 30.1215C294.815 33.3903 297.862 34.3569 301.743 34.2866C306.509 34.392 313.792 33.7594 318.275 35.4992L318.789 35.6925C321.242 36.5034 323.351 38.1058 324.778 40.2441V40.2441C326.55 42.5814 324.052 52.001 323.945 55.0061C323.66 56.2099 323.082 57.3261 322.262 58.2573L322.28 58.3803Z" fill="#000099"/>
<path fill-rule="evenodd" clip-rule="evenodd" d="M404.179 9.63048H390.357L391.74 0H405.525L404.179 9.63048Z" fill="#FF6600"/>
<path d="M174.544 93.9201H182.824V97.2321H174.784C174.368 97.2321 174.048 97.3441 173.824 97.5681C173.6 97.7921 173.488 98.0641 173.488 98.3841C173.488 98.6561 173.576 98.9041 173.752 99.1281C173.928 99.3521 174.176 99.5041 174.496 99.5841L180.232 100.928C181.416 101.2 182.32 101.752 182.944 102.584C183.568 103.4 183.88 104.32 183.88 105.344C183.88 106.608 183.448 107.704 182.584 108.632C181.736 109.544 180.552 110 179.032 110H170.416V106.664H178.912C179.312 106.664 179.632 106.536 179.872 106.28C180.128 106.024 180.256 105.728 180.256 105.392C180.256 104.736 179.896 104.328 179.176 104.168L173.416 102.8C172.248 102.512 171.352 101.968 170.728 101.168C170.104 100.352 169.792 99.4481 169.792 98.4561C169.792 97.2241 170.208 96.1601 171.04 95.2641C171.888 94.3681 173.056 93.9201 174.544 93.9201Z" fill="#1A75E2"/>
<path d="M186.34 110V93.9201H189.748V110H186.34Z" fill="#1A75E2"/>
<path d="M211.333 93.9201V110H207.925V98.9601L203.341 110H201.157L196.597 99.0081V110H193.189V93.9201H197.917L202.285 104.624L206.653 93.9201H211.333Z" fill="#1A75E2"/>
<path d="M222.821 93.9201C224.405 93.9201 225.733 94.4481 226.805 95.5041C227.877 96.5441 228.413 97.8561 228.413 99.4401C228.413 101.056 227.869 102.384 226.781 103.424C225.709 104.448 224.389 104.96 222.821 104.96H218.165V110H214.757V93.9201H222.821ZM218.165 101.72H222.557C223.245 101.72 223.813 101.512 224.261 101.096C224.725 100.68 224.957 100.128 224.957 99.4401C224.957 98.8001 224.725 98.2721 224.261 97.8561C223.797 97.4401 223.229 97.2321 222.557 97.2321H218.165V101.72Z" fill="#1A75E2"/>
<path d="M230.7 110V93.9201H234.132V106.664H242.388V110H230.7Z" fill="#1A75E2"/>
<path d="M256.823 110H244.511V93.9201H256.823V97.2321H247.919V100.232H255.791V103.4H247.919V106.688H256.823V110Z" fill="#1A75E2"/>
<path d="M260.425 106.4H263.905L261.553 113.312H258.649L260.425 106.4Z" fill="#1A75E2"/>
<path d="M284.256 103.496H287.784C287.528 105.48 286.656 107.12 285.168 108.416C283.696 109.696 281.856 110.336 279.648 110.336C277.184 110.336 275.184 109.536 273.648 107.936C272.112 106.32 271.344 104.336 271.344 101.984C271.344 99.6161 272.112 97.6241 273.648 96.0081C275.184 94.3761 277.184 93.5601 279.648 93.5601C281.792 93.5601 283.6 94.1921 285.072 95.4561C286.56 96.7201 287.448 98.3201 287.736 100.256H284.184C283.912 99.2481 283.368 98.4401 282.552 97.8321C281.752 97.2081 280.776 96.9041 279.624 96.9201C278.184 96.9361 277.024 97.4321 276.144 98.4081C275.264 99.3681 274.824 100.552 274.824 101.96C274.824 103.368 275.264 104.56 276.144 105.536C277.024 106.512 278.2 107 279.672 107C280.84 107 281.832 106.68 282.648 106.04C283.48 105.4 284.016 104.552 284.256 103.496Z" fill="#1A75E2"/>
<path d="M304.06 107.936C302.508 109.536 300.468 110.336 297.94 110.336C295.412 110.336 293.364 109.536 291.796 107.936C290.244 106.32 289.468 104.336 289.468 101.984C289.468 99.6321 290.252 97.6401 291.82 96.0081C293.388 94.3761 295.428 93.5601 297.94 93.5601C300.452 93.5601 302.492 94.3761 304.06 96.0081C305.628 97.6401 306.412 99.6321 306.412 101.984C306.412 104.336 305.628 106.32 304.06 107.936ZM294.316 105.536C295.228 106.512 296.436 107 297.94 107C299.444 107 300.652 106.512 301.564 105.536C302.476 104.56 302.932 103.368 302.932 101.96C302.932 100.552 302.476 99.3601 301.564 98.3841C300.652 97.4081 299.444 96.9201 297.94 96.9201C296.436 96.9201 295.228 97.4081 294.316 98.3841C293.404 99.3601 292.948 100.552 292.948 101.96C292.948 103.352 293.404 104.544 294.316 105.536Z" fill="#1A75E2"/>
<path d="M320.538 104.48V93.9201H323.946V110H320.538L312.306 98.7921V110H308.898V93.9201H312.786L320.538 104.48Z" fill="#1A75E2"/>
<path d="M334.226 105.8L339.074 93.9201H342.722L336.026 110H332.306L325.634 93.9201H329.33L334.226 105.8Z" fill="#1A75E2"/>
<path d="M356.542 110H344.23V93.9201H356.542V97.2321H347.638V100.232H355.51V103.4H347.638V106.688H356.542V110Z" fill="#1A75E2"/>
<path d="M371.016 104.48V93.9201H374.424V110H371.016L362.784 98.7921V110H359.376V93.9201H363.264L371.016 104.48Z" fill="#1A75E2"/>
<path d="M377.85 110V93.9201H381.258V110H377.85Z" fill="#1A75E2"/>
<path d="M397.012 110H384.7V93.9201H397.012V97.2321H388.108V100.232H395.98V103.4H388.108V106.688H397.012V110Z" fill="#1A75E2"/>
<path d="M411.486 104.48V93.9201H414.894V110H411.486L403.254 98.7921V110H399.846V93.9201H403.734L411.486 104.48Z" fill="#1A75E2"/>
<path d="M417.078 93.9201H431.286V97.2321H425.886V110H422.454V97.2321H417.078V93.9201Z" fill="#1A75E2"/>
<path d="M431.751 106.4H435.231L432.879 113.312H429.975L431.751 106.4Z" fill="#1A75E2"/>
<path d="M447.362 110H443.954V93.9201H452.186C453.85 93.9201 455.186 94.3121 456.194 95.0961C457.218 95.8801 457.73 96.9841 457.73 98.4081C457.73 99.8961 457.202 101.024 456.146 101.792V101.864C457.458 102.2 458.114 103.2 458.114 104.864V110H454.706V105.488C454.706 104.848 454.37 104.528 453.698 104.528H447.362V110ZM447.362 97.2321V101.432H451.922C452.642 101.432 453.218 101.248 453.65 100.88C454.098 100.496 454.322 99.9761 454.322 99.3201C454.322 98.6801 454.098 98.1761 453.65 97.8081C453.202 97.4241 452.634 97.2321 451.946 97.2321H447.362Z" fill="#1A75E2"/>
<path d="M473.405 110H461.093V93.9201H473.405V97.2321H464.501V100.232H472.373V103.4H464.501V106.688H473.405V110Z" fill="#1A75E2"/>
<path d="M476.239 110V93.9201H479.671V106.664H487.927V110H476.239Z" fill="#1A75E2"/>
<path d="M490.049 110V93.9201H493.457V110H490.049Z" fill="#1A75E2"/>
<path d="M512.293 110H508.429L507.085 106.592H500.341L499.021 110H495.277L501.877 93.9201H505.669L512.293 110ZM503.701 98.0241L501.517 103.592H505.885L503.701 98.0241Z" fill="#1A75E2"/>
<path d="M525.102 101.528V101.648C525.854 101.936 526.462 102.4 526.926 103.04C527.39 103.68 527.622 104.456 527.622 105.368C527.622 106.696 527.15 107.8 526.206 108.68C525.278 109.56 524.126 110 522.75 110H513.99V93.9201H522.462C523.806 93.9201 524.926 94.3201 525.822 95.1201C526.718 95.9041 527.166 96.9281 527.166 98.1921C527.166 98.9121 526.982 99.5681 526.614 100.16C526.246 100.752 525.742 101.208 525.102 101.528ZM521.91 97.0401H517.398V100.424H521.886C522.414 100.424 522.846 100.256 523.182 99.9201C523.518 99.5841 523.686 99.1841 523.686 98.7201C523.686 98.2561 523.518 97.8641 523.182 97.5441C522.846 97.2081 522.422 97.0401 521.91 97.0401ZM517.398 106.904H522.27C522.814 106.904 523.262 106.728 523.614 106.376C523.966 106.008 524.142 105.576 524.142 105.08C524.142 104.6 523.958 104.192 523.59 103.856C523.238 103.52 522.782 103.352 522.222 103.352H517.398V106.904Z" fill="#1A75E2"/>
<path d="M530.191 110V93.9201H533.623V106.664H541.879V110H530.191Z" fill="#1A75E2"/>
<path d="M556.314 110H544.001V93.9201H556.314V97.2321H547.41V100.232H555.281V103.4H547.41V106.688H556.314V110Z" fill="#1A75E2"/>
</g>
<defs>
<clipPath id="clip0_3494_7021">
<rect width="643" height="113" fill="white"/>
</clipPath>
</defs>
</svg>
