<svg width="258" height="56" viewBox="0 0 258 56" fill="none" xmlns="http://www.w3.org/2000/svg">
<path d="M33.668 14.0933L43.9513 2.57145H52.6326L42.3493 14.0933H33.668ZM40.2622 23.7863L55.3007 6.93278C56.4076 5.63401 57.6429 4.43786 58.9899 3.36054C60.5684 2.11971 62.4176 1.22395 64.4051 0.737345C66.9878 0.0937072 69.7108 0.15657 72.2572 0.918621C74.7786 1.6695 76.9789 3.1644 78.5355 5.18398C80.5129 7.83129 81.3444 11.0932 80.8595 14.3012C80.6361 15.8823 80.0828 17.4058 79.2317 18.7833C78.3805 20.1607 77.2485 21.3647 75.9012 22.3254C74.3599 23.4047 72.5765 24.1344 70.689 24.4581C69.622 24.6703 68.5358 24.7846 67.4455 24.7993H63.2036L55.5207 33.426H46.8676L59.1647 19.6276L60.1688 18.4973H65.883C67.8912 18.4973 70.0121 18.4973 71.7495 17.4309H71.7834C72.5986 16.8985 73.2688 16.1912 73.739 15.3668C74.2092 14.5424 74.4662 13.6245 74.4887 12.6881C74.5113 11.7518 74.2989 10.8238 73.8688 9.97999C73.4388 9.13623 72.8034 8.40076 72.0146 7.83384L71.93 7.77519L71.8849 7.7432L71.8229 7.70055C70.8295 7.03961 69.6526 6.66883 68.4383 6.63421H68.3706C67.5863 6.59995 66.801 6.67723 66.041 6.86347C64.978 7.13276 63.9903 7.61866 63.1472 8.28704C62.1211 9.12564 61.1772 10.05 60.3268 11.0489L48.8983 23.845L40.2622 23.7863Z" fill="#FF6600"/>
<path fill-rule="evenodd" clip-rule="evenodd" d="M44.0392 51.0837C42.5973 52.6453 39.7663 52.2522 37.8086 52.2983C36.4985 52.2983 34.3451 51.799 34.6387 50.209C34.6387 50.1205 34.778 49.3096 34.7818 49.2458H37.1874C37.8952 49.2458 37.6957 49.4441 37.6091 50.0249C37.5413 50.7048 38.4223 50.9456 39.0096 50.9349C39.691 50.9349 40.5983 51.027 41.1592 50.5808C41.2766 50.4997 41.371 50.3927 41.434 50.2692C41.5169 50.1771 41.69 48.7996 41.7239 48.6615V48.6438C41.6562 47.362 39.3333 47.8117 38.4562 47.7338C37.7396 47.7481 37.0289 47.6088 36.378 47.3265C35.8133 47.0574 35.2486 46.5404 35.3202 45.9101C35.3202 45.8853 35.4519 44.5432 35.4519 44.522C35.4982 44.3098 35.5886 44.1084 35.7178 43.9291C35.847 43.7499 36.0125 43.5964 36.2049 43.4774C37.6543 42.3584 40.0373 42.6169 41.7879 42.5956C42.6008 42.5705 43.4048 42.762 44.107 43.148C44.1876 43.1986 44.2655 43.253 44.3404 43.3109C44.5142 43.4413 44.662 43.5995 44.7771 43.7784C44.876 43.9274 44.9325 44.0979 44.9411 44.2734C44.9496 44.4489 44.91 44.6235 44.826 44.7805H42.3978C41.8858 44.7805 42.0213 44.7238 41.7691 44.3839C41.6219 44.228 41.438 44.1065 41.2322 44.029C41.0263 43.9516 40.8041 43.9203 40.5832 43.9377C39.898 43.9165 39.0547 43.9377 38.5842 44.4724C38.3696 44.6282 38.3545 45.1558 38.3093 45.3896C38.2039 46.0482 38.8515 46.243 39.6759 46.2288C40.6886 46.2501 42.2359 46.1226 43.1846 46.4731L43.2976 46.5121C43.2976 46.5121 44.2952 46.9689 44.57 47.4186C44.9465 47.8896 44.4194 49.7912 44.3969 50.3967C44.3441 50.6577 44.221 50.9015 44.0392 51.1049V51.0837ZM19.0265 47.2734C18.8163 47.3485 18.5997 47.4065 18.379 47.4469C17.3399 47.7019 15.6759 47.2239 15.2279 48.4491C15.2279 48.6226 14.9719 50.1063 15.0284 50.248C15.179 50.7933 15.8867 50.9562 16.4213 50.9562C16.6171 50.9562 17.7352 50.9562 17.9272 50.9562C18.1833 50.9313 18.4323 50.8616 18.6613 50.7508C18.8048 50.6874 18.9329 50.597 19.0378 50.4852C19.1378 50.3794 19.2043 50.2494 19.2298 50.1099C19.2561 49.9116 19.6364 47.1424 19.6477 47.0539C19.467 47.0787 19.1921 47.1991 19.0265 47.2522V47.2734ZM22.987 44.4795L21.8839 52.0256V52.1425C21.0517 52.3262 20.1924 52.3753 19.3427 52.2876C19.0491 52.2487 18.9173 52.1566 19.0152 51.7352C17.828 52.2101 16.5365 52.4081 15.2505 52.3124C14.5033 52.3219 13.7634 52.1731 13.0858 51.8769C12.5211 51.6148 11.9564 51.112 12.0392 50.4604C12.0392 50.4604 12.3893 48.3358 12.3855 48.3358C12.3981 48.2252 12.4221 48.1161 12.4571 48.01C12.4772 47.9481 12.5024 47.8877 12.5324 47.8294C12.5639 47.7678 12.6004 47.7086 12.6415 47.6523C12.673 47.6082 12.7069 47.5656 12.7432 47.5248C12.9211 47.3162 13.1333 47.1357 13.3719 46.9901C13.8021 46.7264 14.277 46.5336 14.7761 46.42C15.6383 46.1721 17.4378 46.2855 18.3451 46.2607C18.7959 46.271 19.2369 46.1361 19.595 45.8782C19.7172 45.7913 19.8143 45.6768 19.8773 45.5454C19.9337 45.3475 19.9764 45.1464 20.0053 44.9434C20.0167 44.8429 20.0052 44.7414 19.9714 44.6455C19.9376 44.5496 19.8824 44.4616 19.8095 44.3874C19.3277 43.8633 18.3903 43.9979 17.7352 43.9837C17.47 43.9824 17.2069 44.028 16.9597 44.1183C16.2783 44.3272 16.3686 44.8513 15.6872 44.784H13.2213V44.7203C13.2308 44.6006 13.2522 44.4821 13.2853 44.3662C13.4652 43.9425 13.7932 43.589 14.2152 43.364C15.0815 42.8704 16.0787 42.6175 17.0914 42.6346C18.0439 42.6664 20.3404 42.5248 21.2326 42.7904C21.5999 42.8782 21.9496 43.0217 22.2679 43.2153C22.6372 43.4228 22.9069 43.7565 23.0208 44.1466C23.0276 44.2515 23.0161 44.3568 22.987 44.4583V44.4795ZM85.7371 47.277C85.5244 47.3483 85.3068 47.4063 85.0858 47.4505C84.028 47.7019 82.379 47.238 81.9348 48.4562C81.9348 48.6297 81.6825 50.1134 81.7353 50.2515C81.8896 50.8004 82.5974 50.9597 83.1282 50.9597C83.3277 50.9597 84.4458 50.9597 84.6341 50.9597C84.8963 50.9378 85.1518 50.8693 85.387 50.7579C85.5293 50.6926 85.657 50.6024 85.7635 50.4923C85.8638 50.3858 85.9292 50.2542 85.9517 50.1134C85.9818 49.9151 86.3583 47.1495 86.3734 47.0574C86.1738 47.0787 85.899 47.2026 85.7371 47.2557V47.277ZM89.6976 44.4795L88.6021 52.0044V52.1247C87.7696 52.3064 86.9106 52.3555 86.0609 52.2699C85.7635 52.231 85.6317 52.1389 85.7296 51.7175C84.5418 52.1902 83.2506 52.387 81.9649 52.2912C81.2168 52.3015 80.4758 52.1539 79.7964 51.8592C79.2317 51.5936 78.667 51.0943 78.7536 50.4427L79.1 48.3181C79.1148 48.2076 79.14 48.0986 79.1752 47.9923C79.1941 47.9299 79.2193 47.8695 79.2505 47.8117C79.2826 47.7493 79.3191 47.6889 79.3597 47.6311L79.4614 47.5001C79.6431 47.2948 79.8548 47.1148 80.0901 46.9654C80.5224 46.702 80.9982 46.5082 81.4981 46.3917C82.3602 46.1474 84.1597 46.2571 85.067 46.2359C85.5171 46.2418 85.9566 46.1073 86.3169 45.8534C86.4354 45.7638 86.5307 45.65 86.5955 45.5206C86.6555 45.3223 86.6983 45.1198 86.7235 44.9151C86.7344 44.8144 86.7222 44.7126 86.6878 44.6167C86.6534 44.5208 86.5975 44.433 86.524 44.3591C86.0458 43.8386 85.1084 43.9696 84.4534 43.9554C84.1879 43.9547 83.9247 44.0016 83.6778 44.0935C82.9964 44.2989 83.0868 44.823 82.4016 44.7557H79.9395V44.692C79.9506 44.5725 79.972 44.4541 80.0035 44.3379C80.1823 43.9135 80.5106 43.5598 80.9334 43.3357C81.7991 42.8404 82.7964 42.5863 83.8096 42.6027C84.7583 42.6381 87.0585 42.4929 87.9508 42.7621C88.3184 42.849 88.6683 42.9926 88.9861 43.187C89.2951 43.3683 89.538 43.6339 89.6825 43.9483C89.7058 44.003 89.7223 44.0601 89.7315 44.1183C89.7404 44.2326 89.7289 44.3475 89.6976 44.4583V44.4795ZM7.11495 43.959C6.2453 43.959 4.95777 43.8775 4.74695 44.8726L3.95259 50.039C3.94124 50.1095 3.94124 50.1811 3.95259 50.2515C3.97655 50.3514 4.02241 50.4456 4.08723 50.5279C4.15206 50.6102 4.23442 50.6789 4.32906 50.7296C4.62812 50.8885 4.96843 50.9658 5.31165 50.9526C5.9893 50.9526 6.88154 51.0412 7.44248 50.5985C7.55986 50.5174 7.65423 50.4104 7.7173 50.2869C7.74722 50.222 7.76993 50.1544 7.78507 50.0851L8.57942 44.9044V44.8655C8.64719 44.1183 7.70978 43.9377 7.11495 43.9377V43.959ZM9.14036 42.6452C9.64616 42.6997 10.1373 42.8401 10.5898 43.0595C10.7394 43.1364 10.8817 43.2253 11.0152 43.3251C11.1302 43.4125 11.2338 43.5123 11.3239 43.6226C11.4472 43.7688 11.5335 43.9396 11.5761 44.1218C11.6966 44.2316 10.6914 50.3861 10.6613 50.5844C10.6315 50.6734 10.5937 50.7599 10.5484 50.8429C10.0627 51.6113 9.20813 51.9371 8.33848 52.1566C7.03589 52.4328 4.84483 52.4541 3.73048 51.7458C3.73048 51.8662 3.24859 54.8266 3.21848 55.0285C2.94582 55.1613 2.64582 55.2371 2.33908 55.2505C2.03234 55.264 1.72614 55.2148 1.44153 55.1064C0.57565 54.7523 0.406241 54.0051 0.526712 53.0986L2.07777 42.8683V42.7514C2.75166 42.6535 3.43261 42.605 4.11448 42.6063C4.60766 42.631 5.08201 42.6063 4.99918 43.2224C6.26036 42.5354 7.74742 42.5142 9.14036 42.624V42.6452ZM73.7842 43.9625C72.9145 43.9625 71.6308 43.8811 71.4162 44.8761L70.6218 50.0461C70.6124 50.1155 70.6124 50.1857 70.6218 50.255C70.6462 50.3553 70.6921 50.4498 70.7569 50.5326C70.8217 50.6154 70.9038 50.6849 70.9983 50.7366C71.2984 50.8926 71.6382 50.9686 71.9809 50.9562C72.6585 50.9562 73.5545 51.0483 74.1117 50.6021C74.2293 50.5196 74.3236 50.4115 74.3865 50.2869C74.4186 50.2228 74.4415 50.1549 74.4543 50.0851L75.2486 44.9044V44.8655C75.3164 44.1218 74.3828 43.9412 73.7842 43.9412V43.9625ZM75.8096 42.6487C76.3159 42.703 76.8073 42.8446 77.259 43.0666C77.4086 43.1423 77.5509 43.23 77.6844 43.3286C77.8003 43.4164 77.904 43.5175 77.9931 43.6296C78.1158 43.7763 78.202 43.9469 78.2454 44.1289C78.3658 44.2387 77.3607 50.3931 77.3305 50.595C77.3023 50.6834 77.2645 50.7689 77.2176 50.8499C76.732 51.6184 75.8811 51.9442 75.0077 52.1637C74.254 52.3096 73.4832 52.362 72.715 52.3195C71.9019 52.3393 71.0994 52.1429 70.3997 51.7529C70.3809 51.8698 69.9178 54.8302 69.8877 55.0355C69.6147 55.1675 69.3148 55.2427 69.0082 55.2562C68.7017 55.2696 68.3956 55.221 68.1108 55.1134C67.2449 54.7593 67.0755 54.0157 67.1959 53.1056L68.747 42.8789L68.7658 42.7621C69.4396 42.663 70.1206 42.6133 70.8025 42.6133C71.2957 42.6381 71.7701 42.6133 71.6872 43.233C72.9296 42.539 74.4167 42.5213 75.8021 42.6275L75.8096 42.6487ZM92.8186 52.2664C92.1371 52.205 91.4863 51.9699 90.9362 51.5865C90.8204 51.5 90.7166 51.4001 90.6275 51.289C90.5042 51.1428 90.4179 50.972 90.3753 50.7898C90.2284 50.8677 91.083 45.7685 91.0717 45.6835C91.1847 44.9292 91.3993 43.5376 91.5122 42.7798C91.9988 42.6702 92.4998 42.6284 92.9993 42.6558C93.1682 42.663 93.3354 42.6916 93.4962 42.7408C93.5633 42.7625 93.6287 42.7885 93.692 42.8187C93.8022 42.876 93.9004 42.9515 93.9818 43.0418C94.0246 43.0878 94.0624 43.1376 94.0948 43.1905C94.2615 43.5026 94.3055 43.8601 94.219 44.1997C93.9894 46.1367 93.6694 48.0631 93.3757 49.9895C93.4661 51.2253 95.5818 51.0518 96.4628 50.8004C96.6989 50.7214 96.9092 50.586 97.0727 50.4073C97.1671 50.2958 97.2235 50.16 97.2346 50.0178C97.5809 47.7656 98.0063 45.0213 98.3452 42.7939C98.8317 42.6841 99.3327 42.6424 99.8322 42.67C99.9926 42.6816 100.151 42.7126 100.303 42.7621C100.37 42.7837 100.435 42.8098 100.499 42.84C100.609 42.8972 100.707 42.9728 100.788 43.0631C100.83 43.1097 100.868 43.1594 100.901 43.2118C101.062 43.5308 101.103 43.8914 101.018 44.2352L100.115 50.5702C100.016 51.56 99.7491 52.5284 99.324 53.4385C98.7668 54.4088 97.5847 54.8549 96.4929 55.0639C95.6571 55.2551 94.4901 55.1666 93.6317 55.1524C93.18 55.1241 92.0506 55.1524 91.6176 55.0639C91.5084 55.0462 91.4068 55.0285 91.3164 55.0072C90.8388 54.9338 90.4095 54.69 90.1179 54.3267C89.8262 53.9634 89.6946 53.5083 89.7503 53.0561L92.284 53.0738C92.8562 53.0738 92.5287 53.2367 92.7508 53.5447C93.3456 54.0688 94.6331 53.8139 95.3409 53.6935C96.2858 53.5093 96.8468 52.5532 96.9673 51.6679C96.5211 51.8909 96.0467 52.0598 95.5555 52.1708C94.6511 52.3129 93.7302 52.3379 92.8186 52.2451V52.2664ZM64.2068 42.6594C64.4256 42.6838 64.6421 42.724 64.8543 42.7798C65.0844 42.8379 65.3086 42.9149 65.5244 43.0099C65.638 43.06 65.7475 43.118 65.8519 43.1835C65.9331 43.2334 66.011 43.2878 66.0854 43.3463L66.1381 43.3888C66.2284 43.4742 66.3139 43.564 66.3941 43.658C66.4392 43.7111 66.4769 43.7713 66.5145 43.8244C66.5479 43.8789 66.5769 43.9357 66.6011 43.9944C66.6239 44.0507 66.6415 44.1087 66.6538 44.1679C66.6671 44.2261 66.6747 44.2854 66.6764 44.3449C66.3188 47.0256 65.8557 49.6955 65.4642 52.3691C65.3701 52.3974 65.2646 52.4293 65.1818 52.447C64.857 52.5241 64.5192 52.5397 64.1879 52.493C64.0608 52.4733 63.935 52.4461 63.8115 52.4116C63.632 52.353 63.4641 52.2668 63.3145 52.1566C63.2004 52.0704 63.1002 51.969 63.0171 51.8556C62.9743 51.7984 62.9365 51.738 62.9042 51.675C62.7691 51.387 62.7297 51.0673 62.7912 50.7579C63.0824 48.8315 63.376 46.9052 63.6722 44.9788C63.6704 44.9718 63.6704 44.9645 63.6722 44.9575C63.6798 44.8916 63.6798 44.8252 63.6722 44.7592C63.6395 44.6269 63.5707 44.5049 63.4726 44.4051C63.3669 44.2951 63.2389 44.206 63.0962 44.1431C63.0144 44.1051 62.9286 44.0755 62.8402 44.0546C62.4872 43.9837 62.1231 43.9765 61.7672 44.0333C61.5917 44.065 61.4201 44.1137 61.2552 44.1785C61.0436 44.2617 60.8601 44.3976 60.7244 44.5716C60.1296 47.0999 59.9413 49.7557 59.4933 52.3301H56.5531C56.9296 49.8797 57.2835 47.4328 57.6599 44.9859C57.6694 44.9189 57.6694 44.851 57.6599 44.784C57.6478 44.7179 57.6263 44.6536 57.5959 44.5928C57.5278 44.4662 57.4268 44.3578 57.3023 44.2777C57.2392 44.233 57.171 44.195 57.099 44.1643C56.8553 44.0616 56.5905 44.0108 56.3235 44.0156C56.0396 43.9834 55.7518 44.0111 55.4808 44.0969C55.2099 44.1827 54.9627 44.3243 54.7573 44.5114C54.0985 47.0256 54.0044 49.7203 53.5225 52.3018H50.4882C50.9751 49.1219 51.4595 45.9432 51.9413 42.7656C52.7106 42.6771 53.4869 42.6558 54.2604 42.7019C54.6105 42.7337 54.8891 42.8364 54.9832 43.187C55.2268 43.068 55.4783 42.964 55.7362 42.8754C55.9185 42.8151 56.1045 42.7654 56.2933 42.7267C56.9675 42.5882 57.6631 42.5678 58.3451 42.6664C58.4693 42.6842 58.5973 42.7089 58.7216 42.7373C58.8458 42.7656 58.9663 42.8046 59.0792 42.8435C59.1922 42.8825 59.3051 42.925 59.4068 42.9674C59.7542 43.1176 60.0694 43.3264 60.3366 43.5836C60.9074 43.1577 61.5768 42.8641 62.2905 42.7267C62.6926 42.6453 63.1028 42.6049 63.514 42.6063C63.7492 42.6021 63.9844 42.6128 64.2181 42.6381L64.2068 42.6594ZM47.5705 42.6594C47.9427 42.5943 48.3223 42.5741 48.6999 42.5992C48.86 42.6127 49.018 42.6436 49.1705 42.6912C49.2384 42.7125 49.3039 42.7398 49.3663 42.7727C49.4771 42.8275 49.5755 42.9021 49.6562 42.9922C49.698 43.0389 49.7358 43.0886 49.7691 43.141C49.8025 43.1967 49.8314 43.2547 49.8557 43.3145C50.138 43.9908 49.4077 47.1424 49.37 47.9002L48.7451 52.1672L48.7225 52.3018H45.7635L45.7898 52.1247L46.5126 47.3407L47.1978 42.8329V42.7231L47.5705 42.6594ZM32.8882 51.1049C31.4425 52.6701 28.6152 52.2735 26.6538 52.3195C25.3474 52.3195 23.1903 51.8238 23.4877 50.2303C23.4877 50.1417 23.6232 49.3308 23.627 49.2671H26.0326C26.7404 49.2671 26.5408 49.4654 26.458 50.0426C26.3865 50.726 27.2712 50.9668 27.8585 50.9562C28.5361 50.9562 29.4434 51.0483 30.0081 50.6021C30.1235 50.5189 30.2174 50.4124 30.283 50.2905C30.3658 50.1984 30.539 48.8209 30.5728 48.6828V48.6651C30.49 47.3761 28.1898 47.8365 27.3013 47.755C26.5847 47.7693 25.8741 47.63 25.2232 47.3478C24.6585 47.0751 24.0938 46.5581 24.1691 45.9313C24.1691 45.9066 24.2971 44.568 24.2971 44.5432C24.3434 44.3311 24.4337 44.1296 24.5629 43.9504C24.6921 43.7711 24.8577 43.6176 25.05 43.4986C25.9589 42.9008 27.0472 42.5919 28.1559 42.6169C29.5601 42.6664 31.7324 42.3761 32.9521 43.1728C33.035 43.2224 33.1178 43.2791 33.1893 43.3322C33.3627 43.4633 33.5094 43.6228 33.6223 43.8031C33.7208 43.9516 33.7773 44.1212 33.7865 44.296C33.7958 44.4708 33.7574 44.6449 33.675 44.8017H31.2467C30.7347 44.8017 30.8514 44.7451 30.618 44.4051C30.4699 44.2494 30.2853 44.128 30.0789 44.0506C29.8725 43.9732 29.6498 43.9418 29.4284 43.959C28.747 43.9377 27.8999 43.959 27.4331 44.4937C27.2185 44.653 27.2034 45.1771 27.1583 45.4108C27.0529 46.0695 27.7004 46.2642 28.5249 46.2501C29.5376 46.2713 31.0849 46.1438 32.0373 46.4944L32.1465 46.5333C32.6677 46.6967 33.1157 47.0196 33.419 47.4505C33.7954 47.9215 33.2646 49.8195 33.242 50.425C33.1815 50.6676 33.0587 50.8925 32.8844 51.0801L32.8882 51.1049Z" fill="#1843BF"/>
<path fill-rule="evenodd" clip-rule="evenodd" d="M50.288 41.2823H47.3516L47.6452 39.3418H50.5742L50.288 41.2823Z" fill="#FF6600"/>
<path fill-rule="evenodd" clip-rule="evenodd" d="M101.504 51.027C101.504 50.4727 101.978 50 102.547 50C103.117 50 103.579 50.4727 103.579 51.027C103.579 51.5812 103.104 52.065 102.547 52.065C101.99 52.065 101.504 51.5923 101.504 51.027Z" fill="#1843BF"/>
<path fill-rule="evenodd" clip-rule="evenodd" d="M104.359 44.4892C104.359 43.9225 104.833 43.4512 105.39 43.4512C105.947 43.4512 106.434 43.9239 106.434 44.4892C106.434 45.0545 105.96 45.5272 105.39 45.5272C104.821 45.5272 104.359 45.0545 104.359 44.4892ZM104.489 45.9875H106.303V51.9349H104.489V45.9875Z" fill="#1843BF"/>
<path fill-rule="evenodd" clip-rule="evenodd" d="M107.486 49.6219V48.2411C107.486 46.389 108.636 45.8223 110.829 45.8223C113.023 45.8223 114.173 46.389 114.173 48.2411V49.6219C114.173 51.474 112.987 52.0296 110.84 52.0296C108.694 52.0296 107.484 51.4753 107.484 49.6219H107.486ZM112.37 49.6219V48.2411C112.37 47.3565 111.979 46.9073 110.84 46.9073C109.701 46.9073 109.299 47.3551 109.299 48.2411V49.6219C109.299 50.4954 109.69 50.9432 110.84 50.9432C111.99 50.9432 112.37 50.4954 112.37 49.6219Z" fill="#1843BF"/>
<rect x="124.172" y="7.77734" width="40" height="40" rx="20" fill="white"/>
<path d="M144.176 44.7773C153.565 44.7773 161.176 37.1662 161.176 27.7773C161.176 18.3885 153.565 10.7773 144.176 10.7773C134.787 10.7773 127.176 18.3885 127.176 27.7773C127.176 37.1662 134.787 44.7773 144.176 44.7773Z" fill="#26A17B"/>
<path fill-rule="evenodd" clip-rule="evenodd" d="M146.374 29.4034V29.4013C146.256 29.4098 145.649 29.4463 144.293 29.4463C143.211 29.4463 142.449 29.4141 142.182 29.4013V29.4045C138.016 29.2213 134.907 28.4959 134.907 27.628C134.907 26.7613 138.016 26.0359 142.182 25.8495V28.6823C142.454 28.7016 143.234 28.7477 144.312 28.7477C145.605 28.7477 146.253 28.6941 146.374 28.6834V25.8516C150.531 26.037 153.633 26.7623 153.633 27.628C153.633 28.4959 150.531 29.2191 146.374 29.4034V29.4034ZM146.374 25.557V23.022H152.175V19.1562H136.381V23.022H142.182V25.5559C137.467 25.7723 133.922 26.7066 133.922 27.8252C133.922 28.9438 137.467 29.877 142.182 30.0945V38.218H146.374V30.0923C151.081 29.8759 154.618 28.9427 154.618 27.8252C154.618 26.7077 151.081 25.7745 146.374 25.557" fill="white"/>
<rect x="147.504" y="7.77734" width="40" height="40" rx="20" fill="white"/>
<path d="M184 31.8733C181.737 40.9912 172.527 46.5312 163.409 44.2691C154.291 42.0069 148.751 32.7736 151.013 23.6787C153.276 14.5608 162.486 9.02079 171.581 11.283C180.652 13.499 186.239 22.64 184.023 31.7117C184.023 31.7579 184 31.8271 184 31.8733Z" fill="#F7931A"/>
<path d="M175.125 25.16C175.382 22.9022 173.636 21.6686 171.378 20.9005L172.123 17.8979L170.121 17.3858L169.376 20.3884C168.887 20.1324 168.375 20.1324 167.887 19.8996L168.631 16.897L166.886 16.4082L166.141 19.6669C165.652 19.6669 165.396 19.4108 164.884 19.4108L162.393 18.666L161.858 20.6445C162.277 20.7143 162.696 20.7841 163.115 20.9005C163.86 21.1565 164.116 21.6453 164.116 21.9014L163.115 25.6488L161.858 30.6532C161.858 30.9092 161.602 31.142 161.113 31.142L159.856 30.8859L158.855 32.8877L161.346 33.3765C161.765 33.4463 162.184 33.5161 162.603 33.6325L161.858 36.6351L163.86 37.1239L164.605 34.1213C165.093 34.3774 165.606 34.3774 166.094 34.6101L165.093 37.6127L167.095 38.1015L167.84 35.0989C171.099 35.5877 173.333 35.355 174.334 32.6084C175.149 31.0256 174.52 29.0704 172.938 28.2557C172.821 28.1859 172.705 28.1394 172.588 28.0928C173.985 27.7437 174.963 26.5566 175.125 25.16ZM170.866 31.1653C170.121 33.6558 166.374 32.4222 165.117 31.9101L166.118 27.6506C167.375 28.1626 171.378 28.9075 170.866 31.1653ZM171.378 25.16C170.889 27.4178 167.631 26.1609 166.63 25.9049L167.631 22.1574C168.631 22.3902 171.867 22.9022 171.378 25.16Z" fill="white"/>
<rect x="170.84" y="7.77734" width="40" height="40" rx="20" fill="white"/>
<path d="M190.844 44.7773C200.233 44.7773 207.844 37.1662 207.844 27.7773C207.844 18.3885 200.233 10.7773 190.844 10.7773C181.455 10.7773 173.844 18.3885 173.844 27.7773C173.844 37.1662 181.455 44.7773 190.844 44.7773Z" fill="#E2EAF2"/>
<path d="M190.835 14.9199L190.621 15.4556V32.4914L190.835 32.7056L198.764 27.9914L190.835 14.9199Z" fill="#31383E"/>
<path d="M190.839 14.9199L182.91 27.9914L190.839 32.7056V24.4556V14.9199Z" fill="#8C8C8C"/>
<path d="M190.834 34.2045L190.727 34.3117V40.3117L190.834 40.6331L198.762 29.4902L190.834 34.2045Z" fill="#3C3C3B"/>
<path d="M190.839 40.6331V34.2045L182.91 29.4902L190.839 40.6331Z" fill="#8C8C8C"/>
<path d="M190.84 32.707L198.768 27.9927L190.84 24.457V32.707Z" fill="#141414"/>
<path d="M182.91 27.9927L190.839 32.707V24.457L182.91 27.9927Z" fill="#393939"/>
<rect x="194.172" y="7.77734" width="40" height="40" rx="20" fill="white"/>
<circle cx="214.176" cy="27.7773" r="17" fill="white"/>
<path d="M214.176 10.7773C210.814 10.7773 207.527 11.7744 204.731 13.6424C201.936 15.5104 199.757 18.1654 198.47 21.2717C197.183 24.3781 196.846 27.7962 197.502 31.0939C198.158 34.3915 199.778 37.4206 202.155 39.7981C204.533 42.1756 207.562 43.7947 210.859 44.4507C214.157 45.1066 217.575 44.77 220.681 43.4833C223.788 42.1966 226.443 40.0176 228.311 37.222C230.179 34.4263 231.176 31.1396 231.176 27.7773C231.176 23.2687 229.385 18.9447 226.197 15.7565C223.008 12.5684 218.684 10.7773 214.176 10.7773ZM214.419 28.2631L212.719 34.3345H222.19C222.315 34.3454 222.433 34.4001 222.521 34.4889C222.61 34.5778 222.665 34.695 222.676 34.8202L221.947 37.4916C221.936 37.6167 221.882 37.7341 221.793 37.8229C221.704 37.9117 221.587 37.9664 221.462 37.9773H206.647L209.076 29.7202L206.404 30.6916L206.89 28.7487L209.562 28.0202L212.962 16.6059C212.972 16.4808 213.027 16.3635 213.116 16.2747C213.205 16.1859 213.322 16.1312 213.447 16.1202H217.09C217.576 16.1202 217.819 16.1202 217.819 16.6059L214.904 26.3202L217.576 25.5916L217.09 27.5345L214.419 28.2631Z" fill="#4055DC"/>
<rect x="217.504" y="7.77734" width="40" height="40" rx="20" fill="white"/>
<path d="M237.508 44.7773C246.897 44.7773 254.508 37.1662 254.508 27.7773C254.508 18.3885 246.897 10.7773 237.508 10.7773C228.119 10.7773 220.508 18.3885 220.508 27.7773C220.508 37.1662 228.119 44.7773 237.508 44.7773Z" fill="#D91111"/>
<path d="M248.768 22.704C247.795 22.0239 246.755 21.2988 245.738 20.5794C245.716 20.5625 245.693 20.5457 245.665 20.5288C245.553 20.4445 245.423 20.3546 245.266 20.304L245.255 20.2984C242.534 19.6408 239.769 18.9663 237.094 18.3143C234.665 17.7241 232.243 17.134 229.815 16.5438C229.753 16.527 229.691 16.5101 229.624 16.4932C229.405 16.4314 229.152 16.364 228.882 16.3977C228.803 16.4089 228.736 16.437 228.674 16.4764L228.606 16.5326C228.5 16.6337 228.443 16.763 228.415 16.8361L228.398 16.881V17.1396L228.41 17.1789C229.944 21.4787 231.518 25.8403 233.035 30.0614C234.205 33.3101 235.419 36.6768 236.605 39.9818C236.678 40.2066 236.886 40.3527 237.144 40.3752H237.2C237.442 40.3752 237.656 40.2572 237.762 40.0661L242.214 33.5743C243.299 31.9949 244.383 30.4099 245.468 28.8305C245.912 28.1841 246.356 27.5321 246.8 26.8857C247.531 25.8178 248.284 24.7162 249.032 23.6426L249.071 23.5864V23.519C249.088 23.3223 249.094 22.9176 248.768 22.704V22.704ZM243.552 25.0703C242.506 25.6155 241.438 26.1775 240.365 26.734C240.989 26.0651 241.618 25.3907 242.242 24.7218C243.023 23.8787 243.838 23.0075 244.636 22.1532L244.653 22.1363C244.721 22.0464 244.805 21.9621 244.895 21.8722C244.957 21.8103 245.024 21.7485 245.086 21.6754C245.502 21.9621 245.923 22.2544 246.328 22.541C246.62 22.749 246.918 22.9569 247.222 23.1649C245.985 23.7944 244.749 24.4408 243.552 25.0703ZM240.865 24.8005C240.061 25.6717 239.229 26.5654 238.403 27.4478C236.801 25.5031 235.166 23.5302 233.581 21.6248C232.861 20.7593 232.136 19.8881 231.417 19.0225L231.411 19.0169C231.248 18.8314 231.091 18.6291 230.933 18.438C230.832 18.3087 230.725 18.185 230.619 18.0558C231.271 18.2244 231.928 18.3818 232.575 18.5335C233.142 18.6684 233.732 18.8089 234.311 18.9551C237.571 19.7476 240.837 20.5401 244.097 21.3326C243.012 22.4904 241.922 23.6651 240.865 24.8005ZM238.038 35.7551C238.1 35.1649 238.167 34.5579 238.223 33.9621C238.274 33.4843 238.324 32.9953 238.375 32.5288C238.454 31.7813 238.538 31.0056 238.605 30.2469L238.622 30.112C238.679 29.6286 238.735 29.1284 238.768 28.6281C238.83 28.5944 238.898 28.5607 238.971 28.5326C239.055 28.4932 239.139 28.4595 239.224 28.4089C240.522 27.7288 241.82 27.0487 243.124 26.3743C244.423 25.6998 245.755 25.0028 247.076 24.3115C245.873 26.0539 244.664 27.8131 243.495 29.5274C242.489 30.9944 241.455 32.5063 240.427 33.9958C240.022 34.5916 239.6 35.1986 239.201 35.7832C238.752 36.4351 238.291 37.104 237.841 37.7729C237.897 37.0984 237.965 36.4183 238.038 35.7551V35.7551ZM230.203 19.3822C230.13 19.1799 230.051 18.9719 229.983 18.7752C231.501 20.6075 233.03 22.4511 234.519 24.2384C235.289 25.1658 236.059 26.0876 236.829 27.0206C236.981 27.1949 237.133 27.3803 237.279 27.5602C237.47 27.7907 237.661 28.0323 237.869 28.2628C237.802 28.8417 237.746 29.4262 237.684 29.9883C237.644 30.3818 237.605 30.7752 237.56 31.1743V31.1799C237.543 31.4328 237.509 31.6857 237.481 31.933C237.442 32.2759 237.352 33.0515 237.352 33.0515L237.346 33.0909C237.245 34.2263 237.122 35.3729 237.004 36.4857C236.953 36.9466 236.908 37.4188 236.857 37.8909C236.829 37.8066 236.796 37.7223 236.768 37.6436C236.683 37.4188 236.599 37.1827 236.52 36.9522L235.919 35.2829C234.013 29.9827 232.108 24.6881 230.203 19.3822Z" fill="white"/>
</svg>
