<?xml version="1.0" encoding="utf-8"?>
<!-- Generator: Adobe Illustrator 27.3.1, SVG Export Plug-In . SVG Version: 6.00 Build 0)  -->
<svg version="1.1" id="Logo" xmlns="http://www.w3.org/2000/svg" xmlns:xlink="http://www.w3.org/1999/xlink" x="0px" y="0px"
	 viewBox="0 0 392 120" style="enable-background:new 0 0 392 120;" xml:space="preserve">
<style type="text/css">
	.st0{fill:#FF6600;}
	.st1{fill-rule:evenodd;clip-rule:evenodd;fill:#1843BF;}
	.st2{fill:#1843BF;}
	.st3{fill-rule:evenodd;clip-rule:evenodd;fill:#FF6600;}
	.st4{fill:#1A75E2;}
</style>
<path class="st0" d="M47.2,56l14.1-16.6h11.9L59.1,56L47.2,56L47.2,56z M56.3,70l20.7-24.3c1.5-1.9,3.2-3.6,5.1-5.1
	c2.2-1.8,4.7-3.1,7.4-3.8c3.5-0.9,7.3-0.8,10.8,0.3c3.5,1.1,6.5,3.2,8.6,6.1c2.7,3.8,3.9,8.5,3.2,13.1c-0.3,2.3-1.1,4.5-2.2,6.5
	c-1.2,2-2.7,3.7-4.6,5.1c-2.1,1.6-4.6,2.6-7.2,3.1c-1.5,0.3-3,0.5-4.5,0.5h-5.8L77.2,83.9H65.3L82.2,64l1.4-1.6h7.9
	c2.8,0,5.7,0,8.1-1.5h0c1.1-0.8,2-1.8,2.7-3c0.6-1.2,1-2.5,1-3.9c0-1.3-0.3-2.7-0.9-3.9c-0.6-1.2-1.5-2.3-2.6-3.1l-0.1-0.1l-0.1,0
	l-0.1-0.1c-1.4-1-3-1.5-4.7-1.5h-0.1c-1.1,0-2.2,0.1-3.2,0.3c-1.5,0.4-2.8,1.1-4,2.1c-1.4,1.2-2.7,2.5-3.9,4L68.1,70.1L56.3,70
	L56.3,70L56.3,70z"/>
<path class="st1" d="M205.5,60.7c-2.9,3.3-8.5,2.5-12.4,2.5c-2.6,0-6.9-1-6.3-4.4c0-0.2,0.3-1.9,0.3-2h4.8c1.4,0,1,0.4,0.8,1.6
	c-0.1,1.4,1.6,1.9,2.8,1.9c1.4,0,3.2,0.2,4.3-0.7c0.2-0.2,0.4-0.4,0.5-0.7c0.2-0.2,0.5-3.1,0.6-3.4v0c-0.1-2.7-4.8-1.7-6.5-1.9
	c-1.4,0-2.8-0.3-4.1-0.9c-1.1-0.6-2.2-1.6-2.1-3c0-0.1,0.3-2.9,0.3-2.9c0.1-0.4,0.3-0.9,0.5-1.2c0.3-0.4,0.6-0.7,1-0.9
	c2.9-2.3,7.6-1.8,11.1-1.8c1.6-0.1,3.2,0.4,4.6,1.2c0.2,0.1,0.3,0.2,0.5,0.3c0.3,0.3,0.6,0.6,0.9,1c0.2,0.3,0.3,0.7,0.3,1
	c0,0.4-0.1,0.7-0.2,1.1h-4.8c-1,0-0.7-0.1-1.2-0.8c-0.3-0.3-0.7-0.6-1.1-0.7c-0.4-0.2-0.9-0.2-1.3-0.2c-1.4,0-3,0-4,1.1
	c-0.4,0.3-0.5,1.4-0.5,1.9c-0.2,1.4,1.1,1.8,2.7,1.8c2,0,5.1-0.2,7,0.5l0.2,0.1c0,0,2,1,2.5,1.9c0.7,1-0.3,5-0.3,6.2
	C206.1,59.9,205.9,60.4,205.5,60.7L205.5,60.7L205.5,60.7L205.5,60.7z M155.8,52.8c-0.4,0.2-0.8,0.3-1.3,0.4
	c-2.1,0.5-5.4-0.5-6.3,2.1c0,0.4-0.5,3.5-0.4,3.8c0.3,1.1,1.7,1.5,2.8,1.5h3c0.5-0.1,1-0.2,1.5-0.4c0.3-0.1,0.5-0.3,0.7-0.6
	c0.2-0.2,0.3-0.5,0.4-0.8c0.1-0.4,0.8-6.2,0.8-6.4C156.6,52.3,156.1,52.6,155.8,52.8L155.8,52.8L155.8,52.8L155.8,52.8z M163.7,46.9
	l-2.2,15.8V63c-1.7,0.4-3.4,0.5-5.1,0.3c-0.6-0.1-0.8-0.3-0.7-1.2c-2.4,1-4.9,1.4-7.5,1.2c-1.5,0-3-0.3-4.3-0.9
	c-1.1-0.5-2.2-1.6-2.1-3c0,0,0.7-4.5,0.7-4.5c0-0.2,0.1-0.5,0.1-0.7c0-0.1,0.1-0.3,0.2-0.4c0.1-0.1,0.1-0.2,0.2-0.4
	c0.1-0.1,0.1-0.2,0.2-0.3c0.4-0.4,0.8-0.8,1.2-1.1c0.9-0.6,1.8-1,2.8-1.2c1.7-0.5,5.3-0.3,7.1-0.3c0.9,0,1.8-0.3,2.5-0.8
	c0.2-0.2,0.4-0.4,0.6-0.7c0.1-0.4,0.2-0.8,0.3-1.3c0-0.2,0-0.4-0.1-0.6s-0.2-0.4-0.3-0.5c-1-1.1-2.8-0.8-4.1-0.8
	c-0.5,0-1.1,0.1-1.5,0.3c-1.4,0.4-1.2,1.5-2.5,1.4h-4.9v-0.1c0-0.2,0.1-0.5,0.1-0.7c0.4-0.9,1-1.6,1.8-2.1c1.7-1,3.7-1.6,5.7-1.5
	c1.9,0.1,6.5-0.2,8.2,0.3c0.7,0.2,1.4,0.5,2.1,0.9c0.7,0.4,1.3,1.1,1.5,2C163.7,46.4,163.7,46.6,163.7,46.9L163.7,46.9L163.7,46.9
	L163.7,46.9z M288.4,52.8c-0.4,0.2-0.9,0.3-1.3,0.4c-2.1,0.5-5.4-0.4-6.3,2.1c0,0.4-0.5,3.5-0.4,3.8c0.3,1.1,1.7,1.5,2.8,1.5h3
	c0.5,0,1-0.2,1.5-0.4c0.3-0.1,0.5-0.3,0.7-0.6c0.2-0.2,0.3-0.5,0.4-0.8c0.1-0.4,0.8-6.2,0.8-6.4C289.3,52.3,288.7,52.6,288.4,52.8
	L288.4,52.8L288.4,52.8z M296.3,46.9l-2.2,15.8v0.2c-1.7,0.4-3.4,0.5-5.1,0.3c-0.6-0.1-0.9-0.3-0.7-1.2c-2.4,1-4.9,1.4-7.5,1.2
	c-1.5,0-3-0.3-4.3-0.9c-1.1-0.6-2.2-1.6-2.1-3l0.7-4.4c0-0.2,0.1-0.5,0.2-0.7c0-0.1,0.1-0.3,0.2-0.4c0.1-0.1,0.1-0.3,0.2-0.4
	l0.2-0.3c0.4-0.4,0.8-0.8,1.2-1.1c0.9-0.6,1.8-1,2.8-1.2c1.7-0.5,5.3-0.3,7.1-0.3c0.9,0,1.8-0.3,2.5-0.8c0.2-0.2,0.4-0.4,0.6-0.7
	c0.1-0.4,0.2-0.8,0.3-1.3c0-0.2,0-0.4-0.1-0.6c-0.1-0.2-0.2-0.4-0.3-0.5c-1-1.1-2.8-0.8-4.1-0.8c-0.5,0-1.1,0.1-1.5,0.3
	c-1.4,0.4-1.2,1.5-2.5,1.4h-4.9v-0.1c0-0.2,0.1-0.5,0.1-0.7c0.4-0.9,1-1.6,1.9-2.1c1.7-1,3.7-1.6,5.7-1.5c1.9,0.1,6.5-0.2,8.2,0.3
	c0.7,0.2,1.4,0.5,2.1,0.9c0.6,0.4,1.1,0.9,1.4,1.6c0,0.1,0.1,0.2,0.1,0.4C296.4,46.4,296.4,46.6,296.3,46.9L296.3,46.9L296.3,46.9
	L296.3,46.9z M132.1,45.8c-1.7,0-4.3-0.2-4.7,1.9l-1.6,10.8c0,0.1,0,0.3,0,0.4c0,0.2,0.1,0.4,0.3,0.6c0.1,0.2,0.3,0.3,0.5,0.4
	c0.6,0.3,1.3,0.5,2,0.5c1.3,0,3.1,0.2,4.2-0.7c0.2-0.2,0.4-0.4,0.5-0.7c0.1-0.1,0.1-0.3,0.1-0.4l1.6-10.9v-0.1
	C135.1,46.1,133.3,45.8,132.1,45.8L132.1,45.8z M136.1,43.1c1,0.1,2,0.4,2.9,0.9c0.3,0.2,0.6,0.4,0.8,0.6c0.2,0.2,0.4,0.4,0.6,0.6
	c0.2,0.3,0.4,0.7,0.5,1c0.2,0.2-1.8,13.1-1.8,13.5c-0.1,0.2-0.1,0.4-0.2,0.5c-1,1.6-2.7,2.3-4.4,2.8c-2.6,0.6-6.9,0.6-9.2-0.9
	c0,0.2-1,6.5-1,6.9c-0.5,0.3-1.1,0.4-1.7,0.5c-0.6,0-1.2-0.1-1.8-0.3c-1.7-0.7-2.1-2.3-1.8-4.2l3.1-21.4v-0.2
	c1.3-0.2,2.7-0.3,4.1-0.3c1,0.1,1.9,0,1.8,1.3C130.4,42.8,133.3,42.8,136.1,43.1L136.1,43.1L136.1,43.1L136.1,43.1z M264.6,45.8
	c-1.7,0-4.3-0.2-4.7,1.9l-1.6,10.8c0,0.1,0,0.3,0,0.4c0,0.2,0.1,0.4,0.3,0.6c0.1,0.2,0.3,0.3,0.5,0.4c0.6,0.3,1.3,0.5,2,0.5
	c1.3,0,3.1,0.2,4.2-0.7c0.2-0.2,0.4-0.4,0.5-0.7c0.1-0.1,0.1-0.3,0.1-0.4l1.6-10.9v-0.1C267.7,46.2,265.8,45.8,264.6,45.8
	L264.6,45.8L264.6,45.8z M268.7,43.1c1,0.1,2,0.4,2.9,0.9c0.3,0.2,0.6,0.3,0.8,0.5c0.2,0.2,0.4,0.4,0.6,0.6c0.2,0.3,0.4,0.7,0.5,1
	c0.2,0.2-1.8,13.1-1.8,13.6c-0.1,0.2-0.1,0.4-0.2,0.5c-1,1.6-2.7,2.3-4.4,2.8c-1.5,0.3-3,0.4-4.6,0.3c-1.6,0-3.2-0.4-4.6-1.2
	c0,0.2-1,6.5-1,6.9c-0.5,0.3-1.1,0.4-1.7,0.5c-0.6,0-1.2-0.1-1.8-0.3c-1.7-0.7-2.1-2.3-1.8-4.2l3.1-21.4l0-0.2
	c1.3-0.2,2.7-0.3,4.1-0.3c1,0.1,1.9,0,1.8,1.3C262.9,42.8,265.9,42.8,268.7,43.1L268.7,43.1L268.7,43.1z M302.5,63.2
	c-1.4-0.1-2.6-0.6-3.7-1.4c-0.2-0.2-0.4-0.4-0.6-0.6c-0.2-0.3-0.4-0.7-0.5-1c-0.3,0.2,1.4-10.5,1.4-10.7c0.2-1.6,0.7-4.5,0.9-6.1
	c1-0.2,2-0.3,3-0.3c0.3,0,0.7,0.1,1,0.2c0.1,0,0.3,0.1,0.4,0.2c0.2,0.1,0.4,0.3,0.6,0.5c0.1,0.1,0.2,0.2,0.2,0.3
	c0.3,0.7,0.4,1.4,0.2,2.1c-0.5,4.1-1.1,8.1-1.7,12.1c0.2,2.6,4.4,2.2,6.1,1.7c0.5-0.2,0.9-0.4,1.2-0.8c0.2-0.2,0.3-0.5,0.3-0.8
	c0.7-4.7,1.5-10.5,2.2-15.1c1-0.2,2-0.3,3-0.3c0.3,0,0.6,0.1,0.9,0.2c0.1,0,0.3,0.1,0.4,0.2c0.2,0.1,0.4,0.3,0.6,0.5
	c0.1,0.1,0.2,0.2,0.2,0.3c0.3,0.7,0.4,1.4,0.2,2.1L317,59.7c-0.2,2.1-0.7,4.1-1.6,6c-1.1,2-3.5,3-5.6,3.4c-1.7,0.4-4,0.2-5.7,0.2
	c-0.9-0.1-3.1,0-4-0.2c-0.2,0-0.4-0.1-0.6-0.1c-1-0.2-1.8-0.7-2.4-1.4c-0.6-0.8-0.8-1.7-0.7-2.7l5,0c1.1,0,0.5,0.3,0.9,1
	c1.2,1.1,3.7,0.6,5.2,0.3c1.9-0.4,3-2.4,3.2-4.2c-0.9,0.5-1.8,0.8-2.8,1.1C306.1,63.3,304.3,63.4,302.5,63.2L302.5,63.2L302.5,63.2
	L302.5,63.2z M245.6,43.1c0.4,0.1,0.9,0.1,1.3,0.2c0.5,0.1,0.9,0.3,1.3,0.5c0.2,0.1,0.4,0.2,0.7,0.4c0.2,0.1,0.3,0.2,0.5,0.3
	l0.1,0.1c0.2,0.2,0.3,0.4,0.5,0.6c0.1,0.1,0.2,0.2,0.2,0.4c0.1,0.1,0.1,0.2,0.2,0.4c0,0.1,0.1,0.2,0.1,0.4c0,0.1,0,0.2,0,0.4
	c-0.7,5.6-1.6,11.2-2.4,16.8c-0.2,0.1-0.4,0.1-0.6,0.2c-0.6,0.2-1.3,0.2-2,0.1c-0.2,0-0.5-0.1-0.7-0.2c-0.4-0.1-0.7-0.3-1-0.5
	c-0.2-0.2-0.4-0.4-0.6-0.6c-0.1-0.1-0.2-0.2-0.2-0.4c-0.3-0.6-0.3-1.3-0.2-1.9c0.6-4,1.2-8.1,1.8-12.1v0c0-0.1,0-0.3,0-0.4
	c-0.1-0.3-0.2-0.5-0.4-0.7c-0.2-0.2-0.5-0.4-0.7-0.5c-0.2-0.1-0.3-0.1-0.5-0.2c-0.7-0.1-1.4-0.2-2.1,0c-0.4,0.1-0.7,0.2-1,0.3
	c-0.4,0.2-0.8,0.5-1.1,0.8c-1.2,5.3-1.6,10.9-2.4,16.3h-5.8c0.7-5.1,1.5-10.3,2.2-15.4c0-0.1,0-0.3,0-0.4c0-0.1-0.1-0.3-0.1-0.4
	c-0.1-0.3-0.3-0.5-0.6-0.7c-0.1-0.1-0.3-0.2-0.4-0.2c-0.5-0.2-1-0.3-1.5-0.3c-0.6-0.1-1.1,0-1.7,0.2c-0.5,0.2-1,0.5-1.4,0.9
	c-1.3,5.3-1.5,10.9-2.5,16.3h-6c1-6.7,1.9-13.3,2.9-20c1.5-0.2,3.1-0.2,4.6-0.1c0.7,0.1,1.2,0.3,1.4,1c0.5-0.2,1-0.5,1.5-0.7
	c0.4-0.1,0.7-0.2,1.1-0.3c1.3-0.3,2.7-0.3,4.1-0.1c0.2,0,0.5,0.1,0.7,0.1c0.2,0.1,0.5,0.1,0.7,0.2c0.2,0.1,0.4,0.2,0.7,0.3
	c0.7,0.3,1.3,0.8,1.9,1.3c1.1-0.9,2.5-1.5,3.9-1.8c0.8-0.2,1.6-0.3,2.4-0.2C244.7,43,245.2,43,245.6,43.1L245.6,43.1L245.6,43.1z
	 M212.5,43.1c0.7-0.1,1.5-0.2,2.2-0.1c0.3,0,0.6,0.1,0.9,0.2c0.1,0,0.3,0.1,0.4,0.2c0.2,0.1,0.4,0.3,0.6,0.5
	c0.1,0.1,0.2,0.2,0.2,0.3c0.1,0.1,0.1,0.2,0.2,0.4c0.6,1.4-0.9,8-1,9.6l-1.2,8.9l0,0.3h-5.9l0.1-0.4l1.4-10l1.4-9.4v-0.2L212.5,43.1
	L212.5,43.1z M183.3,60.8c-2.9,3.3-8.5,2.5-12.4,2.5c-2.6,0-6.9-1-6.3-4.4c0-0.2,0.3-1.9,0.3-2h4.8c1.4,0,1,0.4,0.8,1.6
	c-0.1,1.4,1.6,1.9,2.8,1.9c1.3,0,3.2,0.2,4.3-0.7c0.2-0.2,0.4-0.4,0.5-0.7c0.2-0.2,0.5-3.1,0.6-3.4v0c-0.2-2.7-4.7-1.7-6.5-1.9
	c-1.4,0-2.8-0.3-4.1-0.9c-1.1-0.6-2.2-1.7-2.1-3c0-0.1,0.3-2.9,0.3-2.9c0.1-0.4,0.3-0.9,0.5-1.2c0.3-0.4,0.6-0.7,1-0.9
	c1.8-1.3,4-1.9,6.2-1.9c2.8,0.1,7.1-0.5,9.5,1.2c0.2,0.1,0.3,0.2,0.5,0.3c0.3,0.3,0.6,0.6,0.9,1c0.2,0.3,0.3,0.7,0.3,1
	c0,0.4-0.1,0.7-0.2,1.1h-4.8c-1,0-0.8-0.1-1.2-0.8c-0.3-0.3-0.7-0.6-1.1-0.7c-0.4-0.2-0.9-0.2-1.3-0.2c-1.4,0-3,0-4,1.1
	c-0.4,0.3-0.5,1.4-0.5,1.9c-0.2,1.4,1.1,1.8,2.7,1.8c2,0,5.1-0.2,7,0.5l0.2,0.1c1,0.3,1.9,1,2.5,1.9c0.7,1-0.3,5-0.4,6.2
	C183.9,59.9,183.7,60.3,183.3,60.8L183.3,60.8L183.3,60.8z"/>
<path class="st1" d="M319.9,61.5c0-1.1,0.9-2,2.1-2c1.1,0,2,0.9,2,2c0,1.1-0.9,2-2,2C320.9,63.6,319.9,62.6,319.9,61.5z"/>
<path class="st1" d="M325.5,48.7c0-1.1,0.9-2,2-2c1.1,0,2.1,0.9,2.1,2s-0.9,2-2.1,2C326.4,50.7,325.5,49.8,325.5,48.7z M325.8,51.6
	h3.6v11.7h-3.6V51.6z"/>
<path class="st1" d="M331.7,58.8v-2.7c0-3.6,2.3-4.8,6.6-4.8c4.3,0,6.6,1.1,6.6,4.8v2.7c0,3.6-2.3,4.7-6.5,4.7
	C334,63.5,331.7,62.4,331.7,58.8L331.7,58.8z M341.3,58.8v-2.7c0-1.7-0.8-2.6-3-2.6c-2.2,0-3,0.9-3,2.6v2.7c0,1.7,0.8,2.6,3,2.6
	C340.5,61.4,341.3,60.5,341.3,58.8z"/>
<path class="st2" d="M319.9,61.5c0-1.1,0.9-2,2.1-2c1.1,0,2,0.9,2,2c0,1.1-0.9,2-2,2C320.9,63.6,319.9,62.6,319.9,61.5z"/>
<path class="st2" d="M325.5,48.7c0-1.1,0.9-2,2-2c1.1,0,2.1,0.9,2.1,2s-0.9,2-2.1,2C326.4,50.7,325.5,49.8,325.5,48.7z M325.8,51.6
	h3.6v11.7h-3.6V51.6z"/>
<path class="st2" d="M331.7,58.8v-2.7c0-3.6,2.3-4.8,6.6-4.8c4.3,0,6.6,1.1,6.6,4.8v2.7c0,3.6-2.3,4.7-6.5,4.7
	C334,63.5,331.7,62.4,331.7,58.8L331.7,58.8z M341.3,58.8v-2.7c0-1.7-0.8-2.6-3-2.6c-2.2,0-3,0.9-3,2.6v2.7c0,1.7,0.8,2.6,3,2.6
	C340.5,61.4,341.3,60.5,341.3,58.8z"/>
<path class="st3" d="M217.8,41.2h-5.8l0.6-4.1h5.8L217.8,41.2L217.8,41.2z"/>
<path class="st4" d="M125.7,77v-4h1.8v10.1h-1.8v-4.3h-5.3v4.3h-1.8V73h1.8v4H125.7z"/>
<path class="st4" d="M134.4,83.3c-1.5,0-2.8-0.5-3.8-1.5s-1.5-2.3-1.5-3.7c0-1.5,0.5-2.7,1.5-3.7c1-1,2.2-1.5,3.8-1.5
	c1.6,0,2.8,0.5,3.8,1.5c1,1,1.5,2.3,1.5,3.8c0,1.5-0.5,2.7-1.5,3.7S136,83.3,134.4,83.3L134.4,83.3z M134.4,81.5c1,0,1.9-0.3,2.5-1
	c0.6-0.7,1-1.5,1-2.5s-0.3-1.8-1-2.5c-0.6-0.7-1.5-1-2.5-1s-1.9,0.3-2.5,1c-0.6,0.7-1,1.5-1,2.5s0.3,1.8,1,2.5
	C132.6,81.2,133.4,81.5,134.4,81.5z"/>
<path class="st4" d="M148.9,80.1V73h1.8v10.1h-1.8l-5.6-7.6v7.6h-1.8V73h2.1L148.9,80.1z"/>
<path class="st4" d="M160.7,83.1h-7.6V73h7.6v1.8h-5.8v2.3h5.2v1.7h-5.2v2.6h5.8V83.1z"/>
<path class="st4" d="M164.9,73h5.1v1.8h-5c-0.3,0-0.6,0.1-0.8,0.3c-0.2,0.2-0.3,0.4-0.3,0.7c0,0.2,0.1,0.4,0.2,0.6
	c0.1,0.2,0.3,0.3,0.6,0.4l3.7,0.9c0.7,0.2,1.3,0.5,1.7,1c0.4,0.5,0.6,1.1,0.6,1.7c0,0.8-0.3,1.4-0.8,2c-0.5,0.6-1.3,0.8-2.2,0.8
	h-5.3v-1.8h5.2c0.3,0,0.6-0.1,0.8-0.3c0.2-0.2,0.3-0.4,0.3-0.7c0-0.2-0.1-0.4-0.2-0.6c-0.1-0.2-0.4-0.3-0.6-0.4l-3.7-0.9
	c-0.7-0.2-1.3-0.5-1.6-1c-0.4-0.5-0.5-1.1-0.5-1.7c0-0.7,0.3-1.4,0.8-1.9C163.3,73.2,164,73,164.9,73L164.9,73z"/>
<path class="st4" d="M171,73h8.8v1.8h-3.5v8.3h-1.8v-8.3H171V73z"/>
<path class="st4" d="M194.9,83.1h-2l-1-2.4h-4.5l-1,2.4h-2l4.2-10.1h2L194.9,83.1L194.9,83.1z M189.6,75.1L188,79h3.2L189.6,75.1z"
	/>
<path class="st4" d="M203.5,80.1V73h1.8v10.1h-1.8l-5.6-7.6v7.6h-1.8V73h2.1L203.5,80.1z"/>
<path class="st4" d="M207.7,83.1V73h4.2c1.5,0,2.7,0.5,3.6,1.4c0.9,1,1.4,2.1,1.4,3.6v0c0,1.4-0.5,2.7-1.4,3.6
	c-0.9,1-2.2,1.4-3.6,1.4L207.7,83.1L207.7,83.1z M211.8,74.7h-2.3v6.6h2.3c1,0,1.8-0.3,2.4-0.9c0.6-0.6,0.9-1.4,0.9-2.4v0
	c0-1-0.3-1.7-0.9-2.3C213.6,75,212.8,74.7,211.8,74.7z"/>
<path class="st4" d="M224.8,73h5.1v1.8h-5c-0.3,0-0.6,0.1-0.8,0.3c-0.2,0.2-0.3,0.4-0.3,0.7c0,0.2,0.1,0.4,0.2,0.6
	c0.1,0.2,0.3,0.3,0.6,0.4l3.7,0.9c0.7,0.2,1.3,0.5,1.7,1c0.4,0.5,0.6,1.1,0.6,1.7c0,0.8-0.3,1.4-0.8,2c-0.5,0.6-1.3,0.8-2.2,0.8
	h-5.3v-1.8h5.2c0.3,0,0.6-0.1,0.8-0.3c0.2-0.2,0.3-0.4,0.3-0.7c0-0.2-0.1-0.4-0.2-0.6c-0.1-0.2-0.4-0.3-0.6-0.4l-3.7-0.9
	c-0.7-0.2-1.3-0.5-1.6-1c-0.4-0.5-0.5-1.1-0.5-1.7c0-0.7,0.3-1.4,0.8-1.9C223.2,73.2,223.9,73,224.8,73L224.8,73z"/>
<path class="st4" d="M241.6,83.1h-2l-1-2.4H234l-1,2.4h-2l4.2-10.1h2L241.6,83.1L241.6,83.1z M236.3,75.1l-1.6,3.9h3.2L236.3,75.1z"
	/>
<path class="st4" d="M250.3,73v1.8h-5.7v2.5h5.2v1.7h-5.2v4.1h-1.8V73H250.3z"/>
<path class="st4" d="M259.6,83.1H252V73h7.6v1.8h-5.8v2.3h5.2v1.7h-5.2v2.6h5.8V83.1z"/>
</svg>
