<svg width="240" height="56" viewBox="0 0 240 56" fill="none" xmlns="http://www.w3.org/2000/svg">
<path d="M33.8359 14.7046L44.1193 3.18278H52.8006L42.5173 14.7046H33.8359ZM40.4301 24.3976L55.4687 7.54411C56.5756 6.24533 57.8109 5.04918 59.1578 3.97187C60.7364 2.73103 62.5856 1.83528 64.5731 1.34867C67.1558 0.705035 69.8788 0.767898 72.4252 1.52995C74.9465 2.28083 77.1469 3.77573 78.7035 5.79531C80.6809 8.44262 81.5124 11.7045 81.0275 14.9125C80.8041 16.4937 80.2508 18.0171 79.3996 19.3946C78.5485 20.772 77.4164 21.976 76.0692 22.9367C74.5278 24.0161 72.7445 24.7458 70.857 25.0694C69.79 25.2817 68.7038 25.396 67.6135 25.4107H63.3716L55.6887 34.0374H47.0356L59.3327 20.2389L60.3368 19.1086H66.051C68.0591 19.1086 70.1801 19.1086 71.9175 18.0422H71.9513C72.7666 17.5099 73.4367 16.8025 73.907 15.9781C74.3772 15.1537 74.6341 14.2358 74.6567 13.2995C74.6793 12.3631 74.4668 11.4351 74.0368 10.5913C73.6067 9.74755 72.9713 9.01209 72.1826 8.44517L72.098 8.38652L72.0529 8.35453L71.9908 8.31188C70.9974 7.65093 69.8206 7.28016 68.6063 7.24554H68.5386C67.7543 7.21128 66.969 7.28855 66.2089 7.4748C65.146 7.74409 64.1583 8.22998 63.3152 8.89837C62.2891 9.73697 61.3451 10.6613 60.4947 11.6602L49.0663 24.4563L40.4301 24.3976Z" fill="#FF6600"/>
<path fill-rule="evenodd" clip-rule="evenodd" d="M44.2072 51.695C42.7653 53.2566 39.9342 52.8636 37.9766 52.9096C36.6665 52.9096 34.5131 52.4103 34.8067 50.8203C34.8067 50.7318 34.946 49.9209 34.9498 49.8572H37.3554C38.0632 49.8572 37.8636 50.0555 37.7771 50.6362C37.7093 51.3161 38.5902 51.5569 39.1775 51.5463C39.8589 51.5463 40.7662 51.6383 41.3272 51.1922C41.4446 51.111 41.5389 51.004 41.602 50.8805C41.6848 50.7885 41.858 49.411 41.8919 49.2729V49.2552C41.8241 47.9733 39.5013 48.423 38.6241 48.3451C37.9075 48.3594 37.1969 48.2201 36.546 47.9379C35.9813 47.6688 35.4166 47.1517 35.4881 46.5214C35.4881 46.4966 35.6199 45.1546 35.6199 45.1333C35.6662 44.9212 35.7565 44.7197 35.8857 44.5405C36.0149 44.3612 36.1805 44.2077 36.3728 44.0887C37.8222 42.9697 40.2053 43.2282 41.9559 43.207C42.7688 43.1818 43.5727 43.3733 44.2749 43.7594C44.3556 43.8099 44.4335 43.8643 44.5084 43.9223C44.6821 44.0526 44.83 44.2108 44.9451 44.3897C45.044 44.5387 45.1005 44.7092 45.109 44.8847C45.1176 45.0602 45.078 45.2349 44.994 45.3918H42.5658C42.0538 45.3918 42.1893 45.3352 41.9371 44.9952C41.7898 44.8393 41.606 44.7178 41.4002 44.6403C41.1943 44.5629 40.9721 44.5316 40.7512 44.549C40.066 44.5278 39.2227 44.549 38.7521 45.0837C38.5375 45.2396 38.5225 45.7672 38.4773 46.0009C38.3719 46.6595 39.0194 46.8543 39.8439 46.8401C40.8566 46.8614 42.4039 46.7339 43.3526 47.0845L43.4655 47.1234C43.4655 47.1234 44.4632 47.5802 44.738 48.0299C45.1145 48.5009 44.5874 50.4025 44.5648 51.008C44.5121 51.269 44.3889 51.5129 44.2072 51.7162V51.695ZM19.1945 47.8848C18.9843 47.9598 18.7676 48.0178 18.5469 48.0583C17.5079 48.3132 15.8439 47.8352 15.3959 49.0604C15.3959 49.2339 15.1399 50.7176 15.1963 50.8593C15.3469 51.4046 16.0547 51.5675 16.5893 51.5675C16.785 51.5675 17.9032 51.5675 18.0952 51.5675C18.3513 51.5426 18.6003 51.4729 18.8293 51.3621C18.9728 51.2987 19.1009 51.2083 19.2058 51.0965C19.3058 50.9907 19.3723 50.8607 19.3978 50.7212C19.4241 50.5229 19.8043 47.7537 19.8156 47.6652C19.6349 47.69 19.3601 47.8104 19.1945 47.8635V47.8848ZM23.1549 45.0908L22.0519 52.6369V52.7538C21.2197 52.9375 20.3604 52.9866 19.5107 52.899C19.217 52.86 19.0853 52.7679 19.1832 52.3466C17.996 52.8214 16.7045 53.0194 15.4185 52.9238C14.6713 52.9333 13.9314 52.7844 13.2537 52.4882C12.689 52.2262 12.1243 51.7233 12.2072 51.0718C12.2072 51.0718 12.5573 48.9471 12.5535 48.9471C12.5661 48.8366 12.59 48.7275 12.625 48.6213C12.6452 48.5594 12.6704 48.499 12.7003 48.4407C12.7318 48.3791 12.7683 48.32 12.8095 48.2637C12.841 48.2195 12.8749 48.1769 12.9112 48.1362C13.0891 47.9275 13.3013 47.747 13.5399 47.6015C13.9701 47.3377 14.445 47.1449 14.9441 47.0314C15.8062 46.7835 17.6058 46.8968 18.513 46.872C18.9639 46.8824 19.4049 46.7474 19.7629 46.4896C19.8852 46.4026 19.9823 46.2882 20.0453 46.1567C20.1017 45.9588 20.1444 45.7578 20.1733 45.5547C20.1847 45.4543 20.1731 45.3527 20.1394 45.2568C20.1056 45.1609 20.0504 45.0729 19.9775 44.9988C19.4956 44.4747 18.5582 44.6092 17.9032 44.5951C17.638 44.5937 17.3749 44.6394 17.1276 44.7296C16.4462 44.9386 16.5366 45.4626 15.8552 45.3954H13.3893V45.3316C13.3987 45.212 13.4202 45.0934 13.4533 44.9775C13.6332 44.5538 13.9612 44.2003 14.3832 43.9754C15.2495 43.4817 16.2467 43.2288 17.2594 43.2459C18.2119 43.2778 20.5083 43.1361 21.4006 43.4017C21.7679 43.4895 22.1176 43.6331 22.4359 43.8266C22.8051 44.0341 23.0749 44.3678 23.1888 44.758C23.1955 44.8629 23.1841 44.9681 23.1549 45.0696V45.0908ZM85.9051 47.8883C85.6923 47.9596 85.4748 48.0176 85.2538 48.0618C84.1959 48.3132 82.547 47.8493 82.1027 49.0675C82.1027 49.241 81.8505 50.7247 81.9032 50.8628C82.0576 51.4117 82.7653 51.5711 83.2962 51.5711C83.4957 51.5711 84.6138 51.5711 84.802 51.5711C85.0643 51.5491 85.3198 51.4806 85.555 51.3692C85.6972 51.3039 85.825 51.2138 85.9314 51.1036C86.0318 50.9971 86.0972 50.8655 86.1197 50.7247C86.1498 50.5264 86.5263 47.7608 86.5413 47.6688C86.3418 47.69 86.067 47.8139 85.9051 47.8671V47.8883ZM89.8656 45.0908L88.77 52.6157V52.7361C87.9376 52.9178 87.0786 52.9669 86.2289 52.8813C85.9315 52.8423 85.7997 52.7502 85.8976 52.3289C84.7098 52.8015 83.4185 52.9983 82.1329 52.9025C81.3848 52.9128 80.6438 52.7652 79.9644 52.4705C79.3997 52.2049 78.835 51.7056 78.9216 51.0541L79.2679 48.9294C79.2828 48.8189 79.308 48.7099 79.3432 48.6036C79.3621 48.5413 79.3873 48.4808 79.4185 48.423C79.4506 48.3606 79.4871 48.3003 79.5277 48.2424L79.6293 48.1114C79.8111 47.9062 80.0227 47.7261 80.258 47.5767C80.6903 47.3134 81.1661 47.1195 81.666 47.003C82.5282 46.7587 84.3277 46.8685 85.235 46.8472C85.6851 46.8532 86.1246 46.7187 86.4849 46.4648C86.6034 46.3752 86.6987 46.2613 86.7635 46.1319C86.8234 45.9337 86.8662 45.7311 86.8915 45.5264C86.9024 45.4257 86.8902 45.324 86.8558 45.2281C86.8214 45.1322 86.7655 45.0443 86.6919 44.9704C86.2138 44.4499 85.2764 44.5809 84.6213 44.5667C84.3559 44.566 84.0926 44.6129 83.8458 44.7048C83.1644 44.9102 83.2547 45.4343 82.5696 45.367H80.1074V45.3033C80.1186 45.1838 80.14 45.0654 80.1714 44.9492C80.3503 44.5249 80.6786 44.1711 81.1013 43.947C81.9671 43.4518 82.9644 43.1976 83.9776 43.214C84.9263 43.2495 87.2265 43.1043 88.1187 43.3734C88.4864 43.4604 88.8362 43.6039 89.154 43.7983C89.4631 43.9796 89.706 44.2452 89.8505 44.5597C89.8738 44.6143 89.8902 44.6714 89.8995 44.7296C89.9083 44.8439 89.8969 44.9588 89.8656 45.0696V45.0908ZM7.28292 44.5703C6.41327 44.5703 5.12574 44.4888 4.91492 45.4839L4.12056 50.6504C4.1092 50.7208 4.1092 50.7924 4.12056 50.8628C4.14452 50.9628 4.19038 51.0569 4.2552 51.1392C4.32002 51.2215 4.40239 51.2902 4.49703 51.3409C4.79609 51.4998 5.1364 51.5771 5.47962 51.564C6.15727 51.564 7.04951 51.6525 7.61045 51.2099C7.72783 51.1287 7.8222 51.0217 7.88527 50.8982C7.91519 50.8333 7.9379 50.7657 7.95304 50.6964L8.74739 45.5158V45.4768C8.81516 44.7296 7.87775 44.549 7.28292 44.549V44.5703ZM9.30833 43.2565C9.81413 43.311 10.3052 43.4514 10.7577 43.6708C10.9074 43.7477 11.0497 43.8366 11.1832 43.9364C11.2981 44.0238 11.4017 44.1237 11.4919 44.2339C11.6152 44.3801 11.7014 44.5509 11.7441 44.7332C11.8646 44.8429 10.8594 50.9974 10.8293 51.1957C10.7995 51.2847 10.7617 51.3712 10.7163 51.4542C10.2307 52.2226 9.3761 52.5484 8.50645 52.7679C7.20386 53.0442 5.0128 53.0654 3.89845 52.3572C3.89845 52.4776 3.41656 55.4379 3.38645 55.6398C3.11379 55.7726 2.81379 55.8484 2.50705 55.8618C2.20031 55.8753 1.89411 55.8261 1.6095 55.7177C0.743619 55.3636 0.57421 54.6164 0.694681 53.7099L2.24574 43.4796V43.3628C2.91962 43.2649 3.60057 43.2163 4.28245 43.2176C4.77562 43.2424 5.24997 43.2176 5.16715 43.8337C6.42833 43.1468 7.91539 43.1255 9.30833 43.2353V43.2565ZM73.9522 44.5738C73.0825 44.5738 71.7987 44.4924 71.5842 45.4874L70.7898 50.6574C70.7803 50.7268 70.7803 50.797 70.7898 50.8664C70.8141 50.9666 70.8601 51.0611 70.9249 51.1439C70.9896 51.2268 71.0718 51.2962 71.1663 51.348C71.4664 51.504 71.8062 51.5799 72.1489 51.5675C72.8265 51.5675 73.7225 51.6596 74.2797 51.2134C74.3972 51.131 74.4916 51.0228 74.5545 50.8982C74.5866 50.8341 74.6094 50.7662 74.6223 50.6964L75.4166 45.5158V45.4768C75.4844 44.7332 74.5507 44.5526 73.9522 44.5526V44.5738ZM75.9776 43.2601C76.4839 43.3143 76.9753 43.4559 77.427 43.6779C77.5765 43.7536 77.7188 43.8413 77.8524 43.94C77.9683 44.0277 78.072 44.1289 78.1611 44.241C78.2837 44.3876 78.3699 44.5582 78.4133 44.7403C78.5338 44.85 77.5286 51.0045 77.4985 51.2063C77.4703 51.2947 77.4325 51.3802 77.3856 51.4613C76.8999 52.2297 76.0491 52.5555 75.1757 52.775C74.422 52.921 73.6512 52.9734 72.883 52.9308C72.0699 52.9507 71.2674 52.7543 70.5677 52.3643C70.5489 52.4811 70.0858 55.4415 70.0557 55.6469C69.7827 55.7788 69.4828 55.8541 69.1762 55.8675C68.8696 55.881 68.5636 55.8323 68.2787 55.7248C67.4129 55.3707 67.2434 54.627 67.3639 53.717L68.915 43.4902L68.9338 43.3734C69.6076 43.2743 70.2885 43.2246 70.9705 43.2247C71.4637 43.2494 71.938 43.2247 71.8552 43.8444C73.0976 43.1503 74.5846 43.1326 75.97 43.2388L75.9776 43.2601ZM92.9865 52.8777C92.305 52.8163 91.6542 52.5812 91.1042 52.1978C90.9883 52.1113 90.8846 52.0114 90.7955 51.9004C90.6722 51.7541 90.5859 51.5834 90.5432 51.4011C90.3964 51.479 91.251 46.3798 91.2397 46.2948C91.3526 45.5405 91.5672 44.1489 91.6802 43.3911C92.1667 43.2815 92.6678 43.2398 93.1672 43.2672C93.3362 43.2744 93.5033 43.3029 93.6642 43.3521C93.7313 43.3738 93.7967 43.3998 93.8599 43.43C93.9701 43.4873 94.0684 43.5629 94.1498 43.6531C94.1925 43.6991 94.2304 43.7489 94.2628 43.8019C94.4295 44.1139 94.4735 44.4714 94.387 44.8111C94.1573 46.7481 93.8373 48.6744 93.5437 50.6008C93.634 51.8366 95.7498 51.6631 96.6308 51.4117C96.8669 51.3328 97.0771 51.1973 97.2406 51.0186C97.3351 50.9071 97.3915 50.7713 97.4025 50.6291C97.7489 48.377 98.1743 45.6326 98.5131 43.4053C98.9996 43.2955 99.5007 43.2537 100 43.2813C100.161 43.293 100.319 43.3239 100.471 43.3734C100.538 43.3951 100.603 43.4211 100.667 43.4513C100.777 43.5085 100.875 43.5841 100.956 43.6744C100.998 43.721 101.036 43.7707 101.069 43.8231C101.23 44.1421 101.271 44.5027 101.186 44.8465L100.283 51.1815C100.184 52.1713 99.9171 53.1397 99.4919 54.0498C98.9348 55.0201 97.7526 55.4663 96.6609 55.6752C95.8251 55.8664 94.658 55.7779 93.7997 55.7637C93.3479 55.7354 92.2185 55.7637 91.7856 55.6752C91.6764 55.6575 91.5748 55.6398 91.4844 55.6185C91.0067 55.5451 90.5775 55.3014 90.2858 54.938C89.9942 54.5747 89.8626 54.1196 89.9183 53.6674L92.4519 53.6851C93.0242 53.6851 92.6966 53.848 92.9187 54.1561C93.5136 54.6801 94.8011 54.4252 95.5089 54.3048C96.4538 54.1206 97.0148 53.1646 97.1352 52.2793C96.6891 52.5022 96.2147 52.6712 95.7235 52.7821C94.819 52.9243 93.8982 52.9493 92.9865 52.8565V52.8777ZM64.3747 43.2707C64.5935 43.2951 64.81 43.3354 65.0223 43.3911C65.2524 43.4492 65.4766 43.5262 65.6924 43.6213C65.806 43.6714 65.9155 43.7294 66.0199 43.7948C66.101 43.8448 66.179 43.8992 66.2533 43.9577L66.306 44.0002C66.3964 44.0855 66.4819 44.1753 66.562 44.2693C66.6072 44.3224 66.6448 44.3826 66.6825 44.4357C66.7159 44.4902 66.7449 44.547 66.7691 44.6057C66.7919 44.662 66.8095 44.7201 66.8218 44.7792C66.8351 44.8374 66.8427 44.8967 66.8444 44.9563C66.4867 47.6369 66.0237 50.3069 65.6321 52.9804C65.538 53.0087 65.4326 53.0406 65.3498 53.0583C65.025 53.1354 64.6872 53.151 64.3559 53.1044C64.2287 53.0846 64.103 53.0574 63.9794 53.0229C63.8 52.9643 63.632 52.8782 63.4825 52.7679C63.3683 52.6817 63.2681 52.5804 63.1851 52.467C63.1422 52.4098 63.1045 52.3494 63.0721 52.2864C62.9371 51.9983 62.8977 51.6786 62.9592 51.3692C63.2503 49.4428 63.544 47.5165 63.8401 45.5901C63.8384 45.5831 63.8384 45.5759 63.8401 45.5689C63.8478 45.503 63.8478 45.4365 63.8401 45.3706C63.8074 45.2382 63.7387 45.1162 63.6406 45.0165C63.5349 44.9064 63.4069 44.8174 63.2641 44.7544C63.1824 44.7165 63.0966 44.6868 63.0081 44.6659C62.6551 44.5951 62.2911 44.5878 61.9352 44.6446C61.7597 44.6763 61.5881 44.725 61.4232 44.7898C61.2115 44.873 61.028 45.0089 60.8924 45.1829C60.2976 47.7112 60.1093 50.3671 59.6613 52.9415H56.7211C57.0975 50.491 57.4514 48.0441 57.8279 45.5972C57.8374 45.5302 57.8374 45.4623 57.8279 45.3954C57.8158 45.3292 57.7942 45.2649 57.7639 45.2041C57.6958 45.0775 57.5948 44.9691 57.4702 44.889C57.4071 44.8443 57.339 44.8063 57.267 44.7757C57.0233 44.6729 56.7584 44.6221 56.4914 44.6269C56.2076 44.5947 55.9197 44.6225 55.6488 44.7082C55.3778 44.794 55.1307 44.9356 54.9253 45.1227C54.2665 47.6369 54.1724 50.3317 53.6905 52.9131H50.6561C51.143 49.7332 51.6274 46.5545 52.1093 43.3769C52.8786 43.2884 53.6549 43.2671 54.4284 43.3132C54.7785 43.3451 55.0571 43.4478 55.1512 43.7983C55.3948 43.6794 55.6463 43.5753 55.9041 43.4867C56.0864 43.4264 56.2725 43.3767 56.4613 43.338C57.1355 43.1995 57.831 43.1791 58.5131 43.2778C58.6373 43.2955 58.7653 43.3203 58.8896 43.3486C59.0138 43.3769 59.1343 43.4159 59.2472 43.4548C59.3601 43.4938 59.4731 43.5363 59.5747 43.5788C59.9222 43.7289 60.2373 43.9378 60.5046 44.1949C61.0754 43.769 61.7447 43.4754 62.4585 43.338C62.8605 43.2566 63.2708 43.2162 63.682 43.2176C63.9172 43.2135 64.1524 43.2241 64.386 43.2495L64.3747 43.2707ZM47.7385 43.2707C48.1107 43.2056 48.4902 43.1854 48.8679 43.2105C49.028 43.224 49.1859 43.2549 49.3385 43.3026C49.4063 43.3238 49.4719 43.3511 49.5342 43.384C49.6451 43.4389 49.7435 43.5134 49.8241 43.6036C49.866 43.6502 49.9038 43.6999 49.9371 43.7523C49.9704 43.808 49.9994 43.866 50.0237 43.9258C50.306 44.6022 49.5757 47.7537 49.538 48.5115L48.9131 52.7786L48.8905 52.9131H45.9314L45.9578 52.7361L46.6806 47.952L47.3658 43.4442V43.3344L47.7385 43.2707ZM33.0561 51.7162C31.6105 53.2814 28.7832 52.8848 26.8218 52.9308C25.5154 52.9308 23.3582 52.4351 23.6556 50.8416C23.6556 50.7531 23.7912 49.9421 23.7949 49.8784H26.2006C26.9083 49.8784 26.7088 50.0767 26.626 50.6539C26.5545 51.3373 27.4392 51.5781 28.0265 51.5675C28.7041 51.5675 29.6114 51.6596 30.1761 51.2134C30.2914 51.1303 30.3854 51.0238 30.4509 50.9018C30.5338 50.8097 30.7069 49.4322 30.7408 49.2941V49.2764C30.658 47.9875 28.3578 48.4478 27.4693 48.3664C26.7527 48.3806 26.0421 48.2414 25.3912 47.9591C24.8265 47.6865 24.2618 47.1695 24.3371 46.5427C24.3371 46.5179 24.4651 45.1794 24.4651 45.1546C24.5114 44.9424 24.6017 44.741 24.7309 44.5617C24.8601 44.3825 25.0256 44.2289 25.218 44.1099C26.1269 43.5122 27.2151 43.2032 28.3239 43.2282C29.7281 43.2778 31.9003 42.9874 33.1201 43.7842C33.2029 43.8337 33.2858 43.8904 33.3573 43.9435C33.5307 44.0746 33.6774 44.2342 33.7902 44.4145C33.8887 44.5629 33.9453 44.7326 33.9545 44.9073C33.9637 45.0821 33.9253 45.2562 33.8429 45.4131H31.4147C30.9027 45.4131 31.0194 45.3564 30.786 45.0165C30.6378 44.8607 30.4533 44.7393 30.2469 44.6619C30.0405 44.5845 29.8178 44.5531 29.5964 44.5703C28.9149 44.549 28.0679 44.5703 27.601 45.105C27.3865 45.2643 27.3714 45.7884 27.3262 46.0221C27.2208 46.6808 27.8684 46.8755 28.6928 46.8614C29.7055 46.8826 31.2528 46.7551 32.2053 47.1057L32.3145 47.1447C32.8357 47.3081 33.2837 47.631 33.5869 48.0618C33.9634 48.5328 33.4326 50.4308 33.41 51.0363C33.3494 51.2789 33.2266 51.5038 33.0524 51.6915L33.0561 51.7162Z" fill="#1843BF"/>
<path fill-rule="evenodd" clip-rule="evenodd" d="M50.456 41.8937H47.5195L47.8132 39.9531H50.7421L50.456 41.8937Z" fill="#FF6600"/>
<path fill-rule="evenodd" clip-rule="evenodd" d="M101.672 51.6383C101.672 51.084 102.146 50.6113 102.715 50.6113C103.285 50.6113 103.746 51.084 103.746 51.6383C103.746 52.1925 103.272 52.6763 102.715 52.6763C102.158 52.6763 101.672 52.2036 101.672 51.6383Z" fill="#1843BF"/>
<path fill-rule="evenodd" clip-rule="evenodd" d="M104.527 45.1005C104.527 44.5338 105.001 44.0625 105.558 44.0625C106.115 44.0625 106.602 44.5352 106.602 45.1005C106.602 45.6658 106.128 46.1385 105.558 46.1385C104.989 46.1385 104.527 45.6658 104.527 45.1005ZM104.657 46.5988H106.471V52.5463H104.657V46.5988Z" fill="#1843BF"/>
<path fill-rule="evenodd" clip-rule="evenodd" d="M107.654 50.2332V48.8524C107.654 47.0003 108.804 46.4336 110.997 46.4336C113.191 46.4336 114.341 47.0003 114.341 48.8524V50.2332C114.341 52.0853 113.155 52.6409 111.008 52.6409C108.862 52.6409 107.652 52.0867 107.652 50.2332H107.654ZM112.538 50.2332V48.8524C112.538 47.9678 112.147 47.5186 111.008 47.5186C109.869 47.5186 109.467 47.9664 109.467 48.8524V50.2332C109.467 51.1067 109.858 51.5545 111.008 51.5545C112.158 51.5545 112.538 51.1067 112.538 50.2332Z" fill="#1843BF"/>
<rect x="124.34" y="8.38867" width="40" height="40" rx="20" fill="white"/>
<rect x="127.344" y="11.3887" width="34" height="34" rx="17" fill="#E2EAF2"/>
<path fill-rule="evenodd" clip-rule="evenodd" d="M137.836 32.4735H135.586L133.899 26.0362C133.819 25.7401 133.649 25.4783 133.398 25.3549C132.774 25.0449 132.086 24.7981 131.336 24.6737V24.4258H134.961C135.461 24.4258 135.836 24.7981 135.899 25.2305L136.774 29.8739L139.023 24.4258H141.211L137.836 32.4735ZM142.462 32.4735H140.337L142.086 24.4258H144.211L142.462 32.4735ZM146.961 26.6553C147.023 26.2219 147.398 25.974 147.836 25.974C148.524 25.9118 149.273 26.0363 149.899 26.3452L150.274 24.6125C149.649 24.3647 148.961 24.2402 148.336 24.2402C146.274 24.2402 144.773 25.3549 144.773 26.902C144.773 28.079 145.836 28.697 146.587 29.0692C147.398 29.4404 147.711 29.6883 147.649 30.0595C147.649 30.6163 147.023 30.8642 146.399 30.8642C145.649 30.8642 144.898 30.6786 144.211 30.3685L143.836 32.1023C144.587 32.4112 145.398 32.5357 146.149 32.5357C148.462 32.5968 149.899 31.4832 149.899 29.8117C149.899 27.7067 146.961 27.5833 146.961 26.6553ZM157.336 32.4735L155.649 24.4258H153.836C153.461 24.4258 153.086 24.6737 152.961 25.0449L149.836 32.4735H152.024L152.46 31.2976H155.148L155.398 32.4735H157.336ZM154.149 26.5931L154.773 29.6261H153.023L154.149 26.5931Z" fill="#172B85"/>
<rect x="149.34" y="8.38867" width="40" height="40" rx="20" fill="white"/>
<rect x="152.344" y="11.3887" width="34" height="34" rx="17" fill="#E2EAF2"/>
<path fill-rule="evenodd" clip-rule="evenodd" d="M169.336 34.4387C167.959 35.6269 166.173 36.3442 164.221 36.3442C159.866 36.3442 156.336 32.7729 156.336 28.3674C156.336 23.962 159.866 20.3906 164.221 20.3906C166.173 20.3906 167.959 21.1079 169.336 22.2962C170.713 21.1079 172.499 20.3906 174.451 20.3906C178.806 20.3906 182.336 23.962 182.336 28.3674C182.336 32.7729 178.806 36.3442 174.451 36.3442C172.499 36.3442 170.713 35.6269 169.336 34.4387Z" fill="#ED0006"/>
<path fill-rule="evenodd" clip-rule="evenodd" d="M169.332 34.4387C171.027 32.9755 172.103 30.7985 172.103 28.3674C172.103 25.9363 171.027 23.7593 169.332 22.2962C170.709 21.1079 172.495 20.3906 174.447 20.3906C178.802 20.3906 182.332 23.9619 182.332 28.3674C182.332 32.7729 178.802 36.3442 174.447 36.3442C172.495 36.3442 170.709 35.6269 169.332 34.4387Z" fill="#F9A000"/>
<path fill-rule="evenodd" clip-rule="evenodd" d="M169.337 22.2969C171.032 23.76 172.107 25.937 172.107 28.3681C172.107 30.7991 171.032 32.9762 169.337 34.4393C167.641 32.9762 166.566 30.7991 166.566 28.3681C166.566 25.937 167.641 23.76 169.337 22.2969Z" fill="#FF5E00"/>
<rect x="174.34" y="8.38867" width="40" height="40" rx="20" fill="white"/>
<rect x="177.34" y="11.3906" width="34" height="34" rx="17" fill="#E2EAF2"/>
<g clip-path="url(#clip0_13001_108213)">
<path d="M186.223 23.8922C185.904 24.2856 185.395 24.5959 184.885 24.5516C184.822 24.0197 185.071 23.4545 185.363 23.1054C185.681 22.7009 186.239 22.4128 186.69 22.3906C186.743 22.9447 186.536 23.4877 186.223 23.8922ZM186.685 24.6569C185.947 24.6125 185.315 25.0946 184.965 25.0946C184.609 25.0946 184.073 24.679 183.489 24.6901C182.73 24.7012 182.024 25.15 181.637 25.8648C180.841 27.2944 181.43 29.411 182.2 30.5746C182.576 31.1509 183.028 31.7825 183.622 31.7604C184.185 31.7382 184.408 31.378 185.087 31.378C185.772 31.378 185.968 31.7604 186.563 31.7493C187.178 31.7382 187.566 31.173 187.943 30.5968C188.373 29.9429 188.548 29.3057 188.558 29.2725C188.548 29.2614 187.369 28.7904 187.359 27.3719C187.348 26.1862 188.288 25.621 188.33 25.5877C187.799 24.7677 186.971 24.679 186.685 24.6569ZM190.947 23.05V31.6883H192.231V28.735H194.01C195.634 28.735 196.775 27.5714 196.775 25.887C196.775 24.2025 195.655 23.05 194.052 23.05H190.947ZM192.231 24.1803H193.712C194.827 24.1803 195.464 24.8009 195.464 25.8925C195.464 26.9841 194.827 27.6102 193.707 27.6102H192.231V24.1803ZM199.121 31.7548C199.928 31.7548 200.676 31.3282 201.016 30.6522H201.043V31.6883H202.232V27.3886C202.232 26.1418 201.276 25.3384 199.806 25.3384C198.442 25.3384 197.433 26.1529 197.396 27.2722H198.553C198.649 26.7403 199.121 26.3912 199.769 26.3912C200.554 26.3912 200.995 26.7735 200.995 27.4772V27.9537L199.392 28.0535C197.9 28.1477 197.093 28.7849 197.093 29.8931C197.093 31.0123 197.927 31.7548 199.121 31.7548ZM199.466 30.7297C198.781 30.7297 198.346 30.3862 198.346 29.8598C198.346 29.3168 198.765 29.001 199.567 28.9511L200.995 28.8569V29.3445C200.995 30.1535 200.337 30.7297 199.466 30.7297ZM203.819 34.0377C205.071 34.0377 205.66 33.539 206.175 32.0263L208.431 25.4215H207.125L205.613 30.5247H205.586L204.073 25.4215H202.73L204.907 31.7105L204.79 32.0928C204.594 32.7411 204.275 32.9904 203.707 32.9904C203.606 32.9904 203.41 32.9794 203.33 32.9683V34.0044C203.405 34.0266 203.723 34.0377 203.819 34.0377Z" fill="black"/>
</g>
<rect x="199.34" y="8.38867" width="40" height="40" rx="20" fill="white"/>
<rect x="202.34" y="11.3906" width="34" height="34" rx="17" fill="#E2EAF2"/>
<g clip-path="url(#clip1_13001_108213)">
<path d="M219.268 28.4695V31.4783H218.262V24.0371H220.879C221.516 24.0371 222.12 24.2636 222.59 24.6842C223.06 25.0724 223.294 25.6548 223.294 26.2695C223.294 26.8842 223.06 27.4342 222.59 27.8548C222.12 28.2753 221.55 28.5018 220.879 28.5018L219.268 28.4695ZM219.268 24.943V27.5312H220.946C221.315 27.5312 221.684 27.4018 221.919 27.143C222.456 26.6577 222.456 25.8489 221.952 25.3636L221.919 25.3312C221.65 25.0724 221.315 24.9106 220.946 24.943H219.268Z" fill="#5F6368"/>
<path d="M225.608 26.2383C226.346 26.2383 226.916 26.4324 227.353 26.8206C227.789 27.2089 227.99 27.7265 227.99 28.3736V31.4795H227.051V30.7677H227.017C226.615 31.35 226.044 31.6412 225.373 31.6412C224.803 31.6412 224.3 31.4795 223.897 31.1559C223.528 30.8324 223.293 30.3795 223.293 29.8942C223.293 29.3765 223.494 28.9559 223.897 28.6324C224.3 28.3089 224.87 28.1795 225.541 28.1795C226.145 28.1795 226.615 28.2765 226.984 28.503V28.2765C226.984 27.953 226.849 27.6295 226.581 27.4353C226.313 27.2089 225.977 27.0795 225.608 27.0795C225.038 27.0795 224.601 27.3059 224.3 27.7589L223.427 27.2412C223.964 26.5618 224.669 26.2383 225.608 26.2383ZM224.333 29.9265C224.333 30.1853 224.467 30.4118 224.669 30.5412C224.903 30.703 225.172 30.8 225.44 30.8C225.843 30.8 226.245 30.6383 226.547 30.3471C226.883 30.0559 227.051 29.7 227.051 29.3118C226.749 29.0853 226.313 28.9559 225.742 28.9559C225.34 28.9559 225.004 29.053 224.736 29.2471C224.467 29.4089 224.333 29.6353 224.333 29.9265Z" fill="#5F6368"/>
<path d="M233.428 26.3984L230.106 33.7426H229.1L230.341 31.1867L228.16 26.4308H229.234L230.811 30.0867H230.844L232.388 26.4308H233.428V26.3984Z" fill="#5F6368"/>
<path d="M215.277 27.8227C215.277 27.5316 215.243 27.2404 215.21 26.9492H211.016V28.5992H213.398C213.297 29.1169 212.995 29.6022 212.525 29.8933V30.961H213.968C214.807 30.2169 215.277 29.1169 215.277 27.8227Z" fill="#4285F4"/>
<path d="M211.014 31.9969C212.222 31.9969 213.228 31.6087 213.966 30.9616L212.524 29.894C212.121 30.1528 211.618 30.3146 211.014 30.3146C209.873 30.3146 208.866 29.5705 208.531 28.5352H207.055V29.6352C207.826 31.091 209.336 31.9969 211.014 31.9969Z" fill="#34A853"/>
<path d="M208.532 28.5352C208.331 28.0175 208.331 27.4352 208.532 26.8852V25.7852H207.056C206.419 26.9822 206.419 28.4057 207.056 29.6352L208.532 28.5352Z" fill="#FBBC04"/>
<path d="M211.015 25.1372C211.653 25.1372 212.257 25.3637 212.726 25.7843L214.001 24.5549C213.196 23.8431 212.123 23.4225 211.049 23.4549C209.371 23.4549 207.828 24.3607 207.09 25.8166L208.566 26.9166C208.868 25.8813 209.875 25.1372 211.015 25.1372Z" fill="#EA4335"/>
</g>
<defs>
<clipPath id="clip0_13001_108213">
<rect width="27.1765" height="11.6471" fill="white" transform="translate(181.254 22.3906)"/>
</clipPath>
<clipPath id="clip1_13001_108213">
<rect width="27.1765" height="10.3529" fill="white" transform="translate(206.254 23.3906)"/>
</clipPath>
</defs>
</svg>
